<svg width="431" height="253" viewBox="0 0 431 253" fill="none" xmlns="http://www.w3.org/2000/svg">
<g opacity="0.44">
<path d="M50.5448 247.067L374.589 247.259C387.59 220.581 400.722 193.154 403.625 163.529C406.551 133.669 396.892 100.623 372.352 84.0206C352.194 70.3826 326.121 70.0912 302.126 73.2848C278.131 76.4778 254.144 82.6805 230.057 80.3105C206.952 78.0379 185.226 67.9602 165.368 55.716C147.584 44.7507 130.407 31.7214 110.214 26.6914C78.0498 18.6801 42.6008 33.7456 22.2764 60.3731C1.95206 87.0006 -4.00296 123.33 2.58132 156.386C8.84662 187.837 26.4901 222.002 50.5448 247.067Z" fill="#C3E7FD"/>
</g>
<g opacity="0.44">
<path d="M379.289 247.049L47.7861 247.261C34.4872 218.889 21.0531 189.72 18.0836 158.212C15.0906 126.455 24.9732 91.309 50.0785 73.6517C70.7014 59.147 97.3742 58.8366 121.922 62.2319C146.469 65.6271 171.008 72.223 195.649 69.7026C219.286 67.2847 241.512 56.5665 261.828 43.5442C280.021 31.8816 297.593 18.0242 318.252 12.6743C351.156 4.15291 387.421 20.1748 408.212 48.4939C429.004 76.8131 435.095 115.45 428.358 150.605C421.948 184.055 403.898 220.391 379.289 247.049Z" fill="#C3E7FD"/>
</g>
<path d="M389.737 143.973C376.128 143.973 364.975 154.648 363.888 168.225L353.084 173.815L364.983 178.331C368.289 189.051 378.121 196.829 389.736 196.829C404.065 196.829 415.68 184.997 415.68 170.401C415.681 155.805 404.065 143.973 389.737 143.973Z" fill="#33B7DB"/>
<path d="M347.587 211.305H341.481V231.473H347.587V211.305Z" fill="#6DABB5"/>
<path d="M361.753 214.737H340.68V211.264C340.68 209.047 342.444 207.25 344.62 207.25H357.812C359.989 207.25 361.753 209.047 361.753 211.264V214.737Z" fill="white"/>
<path d="M367.079 218.171H311.346C309.872 218.171 308.677 216.954 308.677 215.452V214.024C308.677 212.522 309.872 211.305 311.346 211.305H367.079C368.553 211.305 369.749 212.522 369.749 214.024V215.452C369.749 216.954 368.553 218.171 367.079 218.171Z" fill="#86C3D1"/>
<path d="M324.151 177.673C313.686 182.081 308.682 194.683 307.614 205.446C306.469 216.994 311.304 228.71 319.318 236.746C322.172 239.607 326.562 235.139 323.706 232.276C317.129 225.682 313.571 216.916 313.703 207.514C313.816 199.455 317.778 187.147 325.801 183.769C329.446 182.235 327.85 176.116 324.151 177.673Z" fill="#6DABB5"/>
<path d="M313.026 214.738C313.026 213.628 312.143 212.729 311.054 212.729C309.965 212.729 309.082 213.628 309.082 214.738C309.082 215.847 309.965 216.746 311.054 216.746C312.144 216.746 313.026 215.847 313.026 214.738Z" fill="white"/>
<path d="M317.681 155.108L311.797 160.078L321.149 171.567L327.033 166.597L317.681 155.108Z" fill="#6DABB5"/>
<path d="M314.032 167.372L337.65 200.337L351.708 188.464L323.901 159.037L314.032 167.372Z" fill="white"/>
<path d="M350.95 196.919L345.947 201.144L340.329 195.155L346.214 190.186L350.95 196.919Z" fill="#2D3870"/>
<path d="M317.618 172.378L328.123 163.506L325.318 160.537L315.235 169.052L317.618 172.378Z" fill="#9ED5E7"/>
<path d="M324.571 182.083L336.31 172.169L331.221 166.783L320.249 176.049L324.571 182.083Z" fill="#9ED5E7"/>
<path d="M329.356 188.766L341.944 178.135L339.138 175.166L326.974 185.44L329.356 188.766Z" fill="#9ED5E7"/>
<path d="M320.05 155.914L312.115 162.615C311.066 163.501 309.51 163.353 308.64 162.284C307.77 161.215 307.916 159.631 308.965 158.745L316.9 152.043C317.948 151.157 319.504 151.306 320.374 152.374C321.244 153.443 321.099 155.027 320.05 155.914Z" fill="#2D3870"/>
<path d="M352.126 189.924L338.982 201.025C337.852 201.979 336.177 201.819 335.24 200.669C334.303 199.518 334.459 197.812 335.589 196.857L348.733 185.756C349.863 184.802 351.538 184.961 352.475 186.112C353.412 187.263 353.256 188.969 352.126 189.924Z" fill="#6DABB5"/>
<path d="M387.233 183.815H387.231C386.9 183.815 386.594 183.634 386.428 183.343L375.871 164.799C375.712 164.521 375.703 164.179 375.847 163.892C375.991 163.605 376.268 163.412 376.582 163.38L399.124 161.063C399.47 161.027 399.811 161.194 400 161.495C400.19 161.795 400.198 162.178 400.021 162.486L388.036 183.346C387.869 183.637 387.563 183.815 387.233 183.815ZM378.205 165.119L387.237 180.984L397.489 163.138L378.205 165.119Z" fill="#5182B7"/>
<path d="M376.676 167.977C378.656 167.977 380.261 166.342 380.261 164.324C380.261 162.307 378.656 160.672 376.676 160.672C374.695 160.672 373.09 162.307 373.09 164.324C373.09 166.342 374.695 167.977 376.676 167.977Z" fill="white"/>
<path d="M387.233 185.334C389.213 185.334 390.819 183.699 390.819 181.682C390.819 179.665 389.213 178.029 387.233 178.029C385.253 178.029 383.647 179.665 383.647 181.682C383.647 183.699 385.253 185.334 387.233 185.334Z" fill="white"/>
<path d="M402.804 182.954C402.369 182.954 401.981 182.642 401.892 182.192L398.306 163.901C398.206 163.387 398.532 162.888 399.037 162.785C399.542 162.679 400.031 163.015 400.132 163.529L403.718 181.82C403.818 182.334 403.492 182.833 402.987 182.936C402.925 182.948 402.864 182.954 402.804 182.954Z" fill="#5182B7"/>
<path d="M402.803 184.291C404.784 184.291 406.389 182.656 406.389 180.639C406.389 178.622 404.784 176.986 402.803 176.986C400.823 176.986 399.218 178.622 399.218 180.639C399.218 182.656 400.823 184.291 402.803 184.291Z" fill="white"/>
<path d="M402.804 162.006C402.804 164.023 401.199 165.659 399.218 165.659C397.238 165.659 395.633 164.023 395.633 162.006C395.633 159.989 397.238 158.354 399.218 158.354C401.199 158.354 402.804 159.989 402.804 162.006Z" fill="white"/>
<path d="M25.8124 139.102C22.3527 130.936 21.456 121.777 17.1175 114.017C15.509 111.139 13.4903 108.324 13.1533 105.031C14.0842 104.501 15.1702 105.364 15.8683 106.185C18.2917 109.033 20.3365 112.215 21.9282 115.617C20.1534 108.766 16.2413 102.281 16.6081 95.2051C18.0726 95.5749 18.8905 97.1218 19.5309 98.5138C21.2524 102.255 22.6518 106.72 24.9566 110.121C26.0563 111.743 27.38 112.076 29.1225 111.284C33.8724 109.127 37.0988 104.884 42.8943 106.328C42.2799 112.087 40.9308 117.648 40.7421 123.505C40.5522 129.405 40.932 135.324 41.8852 141.147" fill="#FF8698"/>
<path d="M190.96 157.755C189.214 153.226 187.009 148.721 183.434 145.494C178.702 141.224 172.297 139.772 165.945 138.909C160.514 142.862 153.4 144.524 146.719 143.593C142.682 143.031 138.669 141.564 135.638 138.791C134.423 137.679 133.392 136.334 132.622 134.86C123.095 134.931 113.681 140.831 106.139 147.339C96.5074 155.651 88.4269 163.927 75.5023 165.742C63.367 167.445 57.7936 162.974 51.9149 152.573C48.3789 146.318 45.8991 139.537 43.8171 132.633C36.4341 133.899 29.0766 135.285 21.7737 136.926C21.6682 151.392 24.1865 166.533 29.7381 179.315C31.5756 183.544 33.8413 187.67 37.1173 190.873C51.9168 205.343 77.8077 205.935 93.9283 193.778C91.1736 211.492 89.7153 229.415 89.5694 247.349C90.8081 247.403 92.0492 247.409 93.2885 247.375L83.5685 248.772C105.826 249.422 128.083 250.071 150.341 250.72C159.538 250.988 168.794 251.253 177.89 249.85C184.487 248.833 190.953 246.939 197.073 244.232C199.314 216.175 201.246 184.433 190.96 157.755Z" fill="#33B7DB"/>
<path d="M154.307 109.864C153.754 114.352 155.277 118.981 158.055 122.51C160.833 126.038 164.785 128.506 169.02 129.863C176.519 132.266 185.023 131.184 191.711 126.975C200.785 121.264 204.426 109.698 201.823 99.3179C199.402 89.6662 191.107 82.6993 181.562 81.2162C172.926 79.8742 162.986 82.0779 155.279 86.049" fill="#2D3870"/>
<path d="M182.76 99.9288C184.164 97.9022 185.938 95.8622 186.469 93.3671C186.977 90.982 187.572 88.6873 188.192 86.3173C189.718 80.4826 190.393 74.4026 190.169 68.356C190.067 65.579 189.77 62.7792 188.865 60.1665C187.187 55.3204 182.351 50.5255 177.368 49.767C176.907 49.6968 176.413 49.6462 176.05 49.3403C175.805 49.1329 175.651 48.8326 175.504 48.5412C173.168 43.9196 169.513 41.3815 164.664 39.944C160.794 38.7972 156.754 38.4906 152.778 37.8654C145.112 36.6593 137.218 34.2622 129.772 36.5341C123.563 38.4287 118.479 43.4929 115.488 49.5388C113.935 52.6774 112.902 56.4804 114.267 59.7145C114.642 60.602 115.197 61.4555 115.214 62.4264C115.228 63.2697 114.832 64.0504 114.526 64.8299C112.355 70.3606 115.194 77.4824 120.46 79.7114" fill="#323B7C"/>
<path d="M121.971 78.8378C122.033 76.906 120.921 74.9849 119.233 74.103C116.553 72.7041 112.743 74.1587 111.228 76.6727C109.701 79.2083 109.599 82.3558 109.737 85.3275C109.809 86.8668 109.937 88.4251 110.451 89.874C111.513 92.8704 114.087 95.0424 116.771 96.6803" fill="#EF7B91"/>
<path d="M117.282 91.372C117.355 91.408 117.837 90.6096 118.152 89.1449C118.471 87.6973 118.534 85.5448 117.781 83.3613C117.027 81.1779 115.654 79.54 114.516 78.6145C113.371 77.6732 112.505 77.3578 112.469 77.4324C112.411 77.5335 113.173 78.0051 114.179 79.0001C115.183 79.9831 116.4 81.5654 117.105 83.6034C117.808 85.6415 117.831 87.6517 117.652 89.0589C117.478 90.4768 117.174 91.3302 117.282 91.372Z" fill="#D86178"/>
<path d="M114.33 89.0775C114.43 89.0307 114.266 88.5168 114.116 87.6868C113.962 86.858 113.864 85.6961 114.028 84.4318C114.199 83.1682 114.596 82.0745 114.96 81.3166C115.321 80.5567 115.612 80.106 115.528 80.034C115.463 79.9745 115.023 80.3153 114.521 81.058C114.018 81.7945 113.502 82.9608 113.318 84.3338C113.139 85.7075 113.332 86.9718 113.625 87.8176C113.916 88.6698 114.252 89.1174 114.33 89.0775Z" fill="#D86178"/>
<path d="M132.673 134.944C133.437 136.384 134.449 137.7 135.64 138.79C138.671 141.564 142.684 143.03 146.721 143.592C153.14 144.486 160.581 143.076 165.794 138.986C162.127 139.51 161.858 136.812 161.09 133.836C160.321 130.861 159.57 127.88 158.864 124.889C158.635 123.923 155.63 112.346 156.913 112.104C149.25 113.539 141.182 114.171 134.356 117.332C136.838 123.021 137.459 129.343 139.32 135.664C137.011 135.077 134.837 134.902 132.673 134.944Z" fill="#FF8698"/>
<g opacity="0.17">
<path d="M159.11 125.909C159.028 125.569 158.943 125.23 158.862 124.889C158.634 123.923 155.628 112.346 156.912 112.104C149.248 113.539 141.181 114.171 134.354 117.332C136.113 121.363 136.939 125.712 137.931 130.153C142.151 130.652 146.423 130.526 150.548 129.529C153.558 128.802 156.481 127.579 159.11 125.909Z" fill="#FF8698"/>
</g>
<path d="M186.191 92.3774C183.558 90.0644 179.816 89.1307 176.431 89.9424C177.369 79.8457 179.339 64.1202 170.484 56.9738C160.372 48.8133 145.933 47.3676 133.917 51.4747C124.722 54.6171 119.014 65.5894 118.612 75.0116C118.221 84.186 115.717 93.0481 117.741 102.036C118.893 107.153 121.267 112.111 125.149 115.563C132.479 122.081 143.354 124.01 152.706 121.956C156.257 121.176 159.664 119.704 162.645 117.586C165.57 115.509 166.966 113.903 168.876 110.746C168.687 111.059 173.303 112.265 173.716 112.31C175.517 112.504 177.364 112.317 179.087 111.748C182.352 110.67 185.569 109.007 187.634 106.102C190.278 102.384 189.51 95.2929 186.191 92.3774Z" fill="#FF8698"/>
<path d="M184.904 95.4536C184.926 95.3885 183.739 95.013 181.807 95.3209C179.902 95.6053 177.282 96.7578 175.321 99.0815C173.368 101.407 172.583 104.144 172.369 106.073C172.146 108.028 172.377 109.233 172.453 109.224C172.573 109.221 172.527 108.02 172.87 106.153C173.203 104.303 174.031 101.74 175.864 99.5576C177.7 97.383 180.114 96.2261 181.904 95.8272C183.713 95.4056 184.895 95.5851 184.904 95.4536Z" fill="#D86178"/>
<path d="M174.639 107.009C174.678 107.09 175.298 106.913 176.164 106.329C177.01 105.757 178.15 104.689 178.64 103.064C179.118 101.411 178.588 99.8189 177.893 98.9959C177.185 98.1399 176.469 98.0223 176.456 98.0969C176.4 98.2057 176.979 98.4882 177.484 99.3005C177.989 100.085 178.356 101.47 177.954 102.855C177.536 104.252 176.584 105.275 175.856 105.92C175.118 106.572 174.588 106.911 174.639 107.009Z" fill="#D86178"/>
<path opacity="0.41" d="M142.039 69.0195L133.54 91.2492L143.915 92.6197L142.039 69.0195Z" fill="#FF8698"/>
<path d="M130.212 84.7942C130.508 84.8157 130.847 83.4312 130.969 81.701C131.09 79.9715 130.95 78.5517 130.654 78.5295C130.358 78.5081 130.019 79.8925 129.897 81.6227C129.774 83.3529 129.916 84.7727 130.212 84.7942Z" fill="#D86178"/>
<path d="M153.204 87.0409C153.504 87.0441 153.76 85.5105 153.929 83.6248C154.092 81.739 154.109 80.1833 153.813 80.1321C153.523 80.0809 153.026 81.5924 152.858 83.5268C152.686 85.4612 152.911 87.039 153.204 87.0409Z" fill="#D86178"/>
<path d="M127.565 72.5612C131.047 72.6523 137.624 71.6775 134.393 68.1615C132.474 66.0735 128.158 67.6595 126.104 68.7582C124.172 69.7918 123.619 71.6844 125.886 72.3722C126.222 72.474 126.824 72.5423 127.565 72.5612Z" fill="#323B7C"/>
<g opacity="0.17">
<path d="M126.28 56.1251C129.275 62.7911 135.624 65.297 142.169 66.6371C145.895 67.4001 149.74 67.5455 153.514 67.0948C156.882 66.6921 161.169 66.0973 164.086 64.2514C162.758 65.0915 162.65 70.2335 162.626 71.6394C162.581 74.266 163.005 76.902 163.865 79.3788C165.585 84.333 169.144 88.8175 174.537 89.6152C173.379 83.8449 173.119 77.8888 173.769 72.0357C174.042 69.5773 174.475 67.1081 174.251 64.644C173.906 60.8378 171.913 57.2168 168.906 54.9297" fill="#FF8698"/>
</g>
<path d="M156.203 75.0641C152.794 74.3378 146.612 71.8502 150.55 69.1845C152.889 67.6016 156.731 70.1548 158.483 71.7042C160.13 73.1626 160.241 75.1336 157.88 75.2727C157.53 75.2936 156.93 75.219 156.203 75.0641Z" fill="#323B7C"/>
<path d="M123.528 53.1113C124.509 55.052 126.434 56.2859 128.319 57.3252C136.884 62.0467 146.872 64.7201 156.443 62.8856C160.091 62.1864 163.724 60.8425 167.412 61.2787C165.011 66.6456 165.333 72.897 166.707 78.6268C167.771 83.069 169.619 87.6091 173.275 90.2622C173.82 90.6573 174.464 91.0195 175.123 90.9045C175.582 90.8242 175.974 90.522 176.306 90.1889C178.365 88.1211 178.646 84.8864 178.763 81.9431C178.949 77.2728 179.026 72.5537 178.138 67.9681C177.249 63.3818 175.319 58.8891 171.998 55.6639C169.874 53.6012 167.264 52.1283 164.591 50.8949C159.098 48.3619 153.135 46.7398 147.105 46.7619C141.076 46.7841 134.975 48.5193 130.132 52.1782" fill="#323B7C"/>
<path d="M180.562 89.1727C180.468 88.7909 175.525 89.7416 169.662 91.7595C163.795 93.7659 159.294 96.0543 159.446 96.4165C159.603 96.7971 164.309 95.1301 170.119 93.1432C175.926 91.145 180.664 89.5722 180.562 89.1727Z" fill="white"/>
<path d="M165.063 117.07C165.282 116.866 164.175 115.264 162.59 113.49C161.005 111.717 159.541 110.445 159.322 110.648C159.102 110.852 160.209 112.454 161.795 114.228C163.38 116.001 164.843 117.273 165.063 117.07Z" fill="white"/>
<path d="M165.946 138.908C160.514 142.861 153.4 144.524 146.719 143.593C142.682 143.031 138.67 141.564 135.639 138.791C134.424 137.679 133.392 136.334 132.622 134.859C129.668 134.882 126.725 135.466 123.845 136.453C128.534 144.128 136.853 149.557 145.735 150.711C156.074 152.053 166.731 147.94 174.286 140.604C171.595 139.793 168.766 139.292 165.946 138.908Z" fill="#31ADC9"/>
<path d="M183.435 145.494C177.88 140.48 170.017 139.349 162.643 138.497C162.52 138.204 162.404 137.908 162.285 137.613C160.358 169.825 156.724 201.932 151.391 233.743C150.442 239.402 149.433 245.058 148.185 250.655C148.904 250.676 149.624 250.697 150.343 250.719C161.143 251.033 171.232 250.129 181.89 248.998C183.832 248.792 208.384 251.925 207.823 247.996C205.143 229.251 202.033 210.571 198.496 191.975C195.759 177.58 195.019 155.948 183.435 145.494Z" fill="white"/>
<path d="M162.423 137.959C160.413 169.935 156.763 201.804 151.468 233.388C150.76 237.61 150.008 241.829 149.16 246.025C149.076 246.442 148.988 246.857 148.902 247.274C148.781 247.862 148.664 248.452 148.538 249.039C162.43 237.135 174.588 219.263 167.634 200.52C167.131 199.163 166.531 197.719 166.875 196.31C167.089 195.432 167.647 194.691 168.173 193.962C175.125 184.327 177.048 176.008 174.812 164.604C172.987 155.294 169.205 146.384 163.816 138.637C163.424 138.589 163.032 138.543 162.642 138.498C162.567 138.319 162.495 138.139 162.423 137.959Z" fill="#C3E7FD"/>
<path opacity="0.5" d="M46.6237 85.1432V63.1387H35.5968V85.1432C27.2774 87.5815 21.1846 95.3772 21.1846 104.636C21.1846 115.846 30.1053 124.934 41.1105 124.934C52.1158 124.934 61.0365 115.847 61.0365 104.636C61.0359 95.3772 54.9437 87.5815 46.6237 85.1432Z" fill="white"/>
<path d="M37.4136 104.266C33.3079 104.991 28.0529 104.913 23.7101 103.37C23.681 103.79 23.6475 104.209 23.6475 104.637C23.6475 114.462 31.4654 122.425 41.1098 122.425C50.7541 122.425 58.5721 114.462 58.5721 104.637C58.5721 102.808 58.2996 101.045 57.7963 99.3848C50.9657 100.2 43.6727 103.162 37.4136 104.266Z" fill="#1F68EB"/>
<path d="M47.1437 65.7017H35.078C33.9665 65.7017 33.0654 64.7838 33.0654 63.6516C33.0654 62.5194 33.9665 61.6016 35.078 61.6016H47.1437C48.2552 61.6016 49.1563 62.5194 49.1563 63.6516C49.1563 64.7838 48.2552 65.7017 47.1437 65.7017Z" fill="white"/>
<path d="M29.8367 123.399C28.31 125.585 28.6476 128.238 29.9242 130.472C30.8035 132.011 32.1303 133.341 33.5973 134.19C35.724 133.827 37.8538 133.481 39.983 133.134C40.7892 132.924 41.594 132.707 42.4008 132.5C42.443 132.489 42.4852 132.479 42.5274 132.468C42.5789 131.703 42.5603 130.918 42.5795 130.155C42.6223 128.447 42.6447 126.737 42.3803 125.044C41.9713 122.423 41.0349 119.849 39.8695 117.482C38.6531 115.011 37.1892 112.667 35.5093 110.497C35.1184 109.992 30.3747 104.763 30.2661 104.913C29.2515 106.322 29.9862 108.294 30.7638 109.851C32.5144 113.354 34.3644 116.806 36.3117 120.2C33.8251 120.258 31.2789 121.335 29.8367 123.399Z" fill="#FF8698"/>
<path d="M158.535 115.617C157.847 116.373 157.143 117.074 156.441 117.709C148.388 125.001 134.294 125.777 125.56 119.213C116.773 112.609 114.78 101.032 116.314 90.6169C116.828 87.1205 127.649 86.4485 130.031 86.3493C135.455 86.1223 140.938 86.5749 146.229 87.8285C151.432 89.0612 163.07 91.3685 164.796 97.692C166.514 103.988 162.848 110.878 158.535 115.617Z" fill="#E4EFF2"/>
<path d="M106.139 147.339C96.5074 155.651 88.4269 163.927 75.5023 165.742C63.367 167.445 57.7936 162.974 51.9149 152.573C48.3789 146.318 45.8991 139.537 43.8171 132.633C36.4341 133.899 29.0766 135.285 21.7737 136.926C21.6682 151.392 24.1865 166.533 29.7381 179.315C31.5756 183.544 33.8413 187.67 37.1173 190.873C51.9168 205.343 77.8077 205.935 93.9283 193.778C91.1736 211.492 89.7153 229.415 89.5694 247.349C90.8081 247.403 92.0492 247.409 93.2885 247.375L83.5685 248.772C98.2667 249.201 112.965 249.63 127.664 250.059C127.849 211.606 130.717 173.168 136.237 135.129C125.504 133.453 114.634 140.008 106.139 147.339Z" fill="white"/>
<path d="M155.412 99.0941C155.434 99.0486 155.036 98.8159 154.297 98.4335C153.929 98.2388 153.473 98.0125 152.931 97.7773C152.39 97.539 151.78 97.2526 151.084 96.9915C149.706 96.4308 148.028 95.8568 146.139 95.3125C144.244 94.7885 142.133 94.3062 139.893 93.9515C137.649 93.6114 135.493 93.4338 133.532 93.3605C131.568 93.308 129.8 93.3485 128.32 93.4667C127.579 93.5052 126.913 93.5944 126.327 93.6582C125.742 93.7189 125.24 93.7966 124.832 93.8712C124.015 94.0128 123.567 94.1146 123.573 94.1646C123.589 94.284 125.405 94.0735 128.345 93.9819C129.814 93.93 131.565 93.9433 133.504 94.0324C135.443 94.1412 137.569 94.3378 139.785 94.6728C141.998 95.023 144.086 95.4794 145.969 95.9618C147.846 96.4643 149.522 96.9814 150.91 97.4751C153.69 98.4531 155.363 99.2034 155.412 99.0941Z" fill="white"/>
<path d="M150.665 104.767C150.699 104.687 149.414 104.002 147.213 103.188C145.015 102.372 141.879 101.486 138.331 100.994C134.782 100.51 131.528 100.518 129.197 100.711C126.862 100.901 125.445 101.215 125.457 101.301C125.471 101.415 126.906 101.284 129.221 101.227C131.536 101.167 134.738 101.241 138.235 101.718C141.731 102.203 144.837 102.996 147.054 103.678C149.272 104.358 150.621 104.872 150.665 104.767Z" fill="white"/>
<path d="M145.307 110.639C145.36 110.462 141.839 109.332 137.324 108.981C132.809 108.609 129.159 109.164 129.185 109.348C129.202 109.565 132.827 109.342 137.268 109.709C141.71 110.054 145.256 110.851 145.307 110.639Z" fill="white"/>
<path d="M140.771 115.209C140.794 115.009 139.192 114.654 137.193 114.416C135.194 114.179 133.555 114.149 133.532 114.349C133.51 114.55 135.111 114.904 137.11 115.141C139.109 115.379 140.748 115.409 140.771 115.209Z" fill="white"/>
<g opacity="0.17">
<path d="M183.35 106.121C182.168 107.431 180.317 108.793 178.719 109.516C178.175 109.763 172.413 110.365 172.555 109.419C173.092 105.861 172.892 103.318 175.055 100.214C176.775 97.7445 179.394 95.8803 182.321 95.3506C183.444 95.147 184.774 95.2153 185.49 96.1212C185.883 96.6193 186.011 97.2805 186.068 97.9171C186.337 100.876 185.324 103.933 183.35 106.121Z" fill="#FF8698"/>
</g>
<path d="M91.6099 206.022C91.7675 206.049 92.3372 203.279 93.3246 198.824C94.3106 194.369 95.7615 188.238 97.6506 181.546C99.5458 174.856 101.519 168.879 103.011 164.572C104.501 160.264 105.465 157.61 105.318 157.548C105.249 157.519 104.924 158.147 104.392 159.309C103.856 160.469 103.138 162.173 102.3 164.3C100.621 168.55 98.5225 174.52 96.6179 181.243C94.7196 187.969 93.3779 194.16 92.5799 198.67C92.179 200.925 91.8966 202.757 91.7446 204.029C91.5882 205.301 91.5367 206.009 91.6099 206.022Z" fill="#E4EFF2"/>
<path d="M97.1133 182.108C94.8079 183.097 92.0656 184.21 88.874 185.278C86.2787 186.14 83.3881 186.953 80.2337 187.492C77.0831 188.044 73.6532 188.29 70.0787 188.042C66.5104 187.788 62.7869 186.96 59.2658 185.302C55.7391 183.653 52.491 181.124 49.6742 178.051C48.2773 176.501 47.0107 174.861 45.8515 173.179C44.7016 171.488 43.6751 169.747 42.7213 168.004C41.7787 166.254 40.9341 164.489 40.1441 162.741C39.377 160.984 38.6528 159.245 38.0012 157.529C35.3638 150.67 33.6436 144.248 32.4999 138.799C32.2156 137.415 31.9674 136.094 31.749 134.842C31.5249 134.885 31.3022 134.932 31.0781 134.976C31.2705 136.234 31.4939 137.561 31.7545 138.953C32.8101 144.457 34.4677 150.953 37.0772 157.893C37.722 159.63 38.44 161.386 39.2076 163.17C39.9976 164.944 40.8459 166.737 41.7973 168.519C42.7598 170.294 43.8005 172.07 44.9721 173.799C46.1531 175.52 47.4495 177.202 48.8861 178.796C51.7817 181.957 55.1539 184.577 58.8252 186.276C62.4909 187.986 66.3453 188.814 70.011 189.049C73.6842 189.276 77.1848 188.988 80.387 188.387C83.5954 187.798 86.5096 186.929 89.116 186.012C92.1121 184.949 94.6924 183.847 96.8831 182.841C96.9588 182.597 97.0339 182.352 97.1133 182.108Z" fill="#E4EFF2"/>
<path d="M38.2942 138.652C32.1964 139.951 26.5399 141.191 21.8564 142.25C21.8676 142.555 21.8856 142.86 21.8993 143.166C26.6342 142.219 32.3553 141.036 38.5145 139.724C40.9639 139.202 43.3401 138.69 45.6126 138.195C45.4966 137.858 45.3824 137.52 45.2688 137.182C43.0316 137.649 40.6977 138.14 38.2942 138.652Z" fill="#E4EFF2"/>
<path d="M136.236 135.126C135.063 134.943 133.889 134.864 132.716 134.867C121.23 147.198 106.767 164.196 118.766 180.595C119.058 180.993 119.37 181.404 119.454 181.893C119.592 182.698 119.081 183.452 118.621 184.121C112.096 193.616 111.713 207.089 112.797 218.27C113.952 230.183 119.321 241.614 127.656 250.047C127.659 250.047 127.661 250.047 127.664 250.047C127.849 211.597 130.716 173.162 136.236 135.126Z" fill="#C3E7FD"/>
<path d="M179.166 248.176C179.239 248.169 179.234 247.367 179.16 245.925C179.085 244.482 178.948 242.397 178.762 239.823C178.323 234.099 177.799 227.268 177.219 219.719C176.624 212.171 176.086 205.34 175.635 199.618C175.422 197.047 175.235 194.966 175.085 193.529C174.934 192.092 174.817 191.3 174.742 191.305C174.668 191.309 174.645 192.11 174.667 193.555C174.688 195 174.759 197.089 174.876 199.669C175.109 204.828 175.537 211.95 176.148 219.805C176.76 227.661 177.437 234.763 178.005 239.894C178.289 242.46 178.541 244.535 178.744 245.966C178.945 247.396 179.091 248.184 179.166 248.176Z" fill="#E4EFF2"/>
<path d="M175.409 52.0273C175.379 51.9394 174.836 52.0191 174.02 52.3516C173.204 52.681 172.129 53.2954 171.113 54.1994C170.1 55.1065 169.36 56.1123 168.932 56.8917C168.502 57.6731 168.353 58.2104 168.435 58.2515C168.625 58.3545 169.648 56.4543 171.585 54.7481C173.5 53.0166 175.484 52.2328 175.409 52.0273Z" fill="#3E4C96"/>
<path d="M173.24 82.0325C173.346 81.9845 172.867 80.779 172.284 78.7807C171.987 77.7832 171.693 76.5789 171.425 75.2318C171.174 73.8809 170.958 72.3852 170.837 70.8042C170.728 69.2226 170.726 67.7105 170.779 66.3368C170.85 64.9644 170.966 63.7292 171.116 62.6981C171.404 60.6342 171.704 59.3699 171.593 59.3383C171.514 59.3136 171.038 60.5349 170.616 62.6109C170.401 63.647 170.229 64.8987 170.12 66.297C170.029 67.6959 170.011 69.2416 170.122 70.858C170.245 72.4731 170.486 73.9998 170.779 75.3696C171.088 76.7363 171.439 77.9488 171.802 78.9413C172.519 80.9313 173.166 82.0685 173.24 82.0325Z" fill="#3E4C96"/>
<path d="M179.771 87.243C179.815 87.2569 179.995 86.8334 180.25 86.0407C180.497 85.246 180.803 84.0753 181.04 82.5992C181.276 81.1238 181.433 79.3411 181.394 77.3587C181.342 75.3781 181.097 73.1991 180.548 70.9771C180.007 68.7488 179.203 66.7284 178.482 64.9135C177.752 63.0992 177.108 61.4714 176.65 60.0757C175.712 57.2879 175.602 55.4464 175.474 55.459C175.432 55.4616 175.406 55.9256 175.483 56.7581C175.555 57.5913 175.756 58.7924 176.166 60.228C176.569 61.6661 177.172 63.335 177.869 65.1607C178.557 66.9895 179.328 68.9858 179.854 71.1541C180.389 73.3224 180.648 75.4452 180.734 77.3808C180.808 79.3184 180.707 81.0681 180.539 82.5278C180.193 85.4496 179.652 87.2082 179.771 87.243Z" fill="#3E4C96"/>
<path d="M185.491 85.6735C185.538 85.6855 185.682 85.2467 185.902 84.4389C186.016 84.0362 186.142 83.5393 186.249 82.9546C186.362 82.3705 186.513 81.708 186.603 80.9639C186.712 80.2218 186.824 79.4076 186.886 78.527C186.98 77.6483 187 76.7051 187.036 75.712C187.056 73.7264 186.956 71.5392 186.658 69.2647C186.341 66.9927 185.855 64.8599 185.308 62.9539C185.01 62.0082 184.74 61.1055 184.416 60.2856C184.123 59.4543 183.798 58.7014 183.495 58.0174C183.211 57.3259 182.89 56.7297 182.627 56.1981C182.367 55.6646 182.115 55.2214 181.897 54.8649C181.472 54.148 181.217 53.765 181.173 53.7902C181.065 53.8516 181.94 55.4705 183.029 58.2197C183.299 58.9081 183.592 59.6623 183.857 60.4911C184.153 61.3078 184.398 62.2048 184.674 63.141C185.178 65.028 185.636 67.1299 185.948 69.3646C186.241 71.6018 186.359 73.7511 186.375 75.7069C186.358 76.6849 186.361 77.6154 186.293 78.4834C186.258 79.3538 186.176 80.1605 186.1 80.8982C185.782 83.8446 185.37 85.6444 185.491 85.6735Z" fill="#3E4C96"/>
<path d="M119.454 46.9754C119.511 47.0222 119.967 46.3483 121.063 45.4406C122.148 44.5315 123.98 43.5037 126.452 42.9739C127.684 42.7084 129.066 42.5649 130.548 42.563C132.03 42.5706 133.621 42.7312 135.286 42.9695C138.611 43.424 142.296 44.2736 146.27 44.1326C150.217 43.9847 153.875 43.2192 157.223 43.1326C160.562 42.9986 163.598 43.5441 165.812 44.7515C168.045 45.9393 169.408 47.5918 170.084 48.8352C170.78 50.0888 170.889 50.9099 170.964 50.8884C170.988 50.8834 170.965 50.683 170.895 50.3006C170.805 49.9257 170.659 49.3656 170.331 48.7031C169.709 47.3762 168.351 45.5967 166.054 44.2976C163.768 42.9733 160.616 42.3595 157.207 42.46C153.784 42.5143 150.107 43.2615 146.247 43.4025C142.39 43.5428 138.74 42.7274 135.374 42.3019C133.689 42.0794 132.072 41.9378 130.545 41.9568C129.021 41.9852 127.604 42.1629 126.341 42.4695C123.806 43.0795 121.942 44.2199 120.883 45.2225C120.613 45.4703 120.382 45.6972 120.203 45.9166C120.016 46.1264 119.863 46.3079 119.758 46.4716C119.538 46.7889 119.434 46.9609 119.454 46.9754Z" fill="#3E4C96"/>
<path d="M132.122 45.6072C132.091 45.5162 131.116 45.7482 129.583 46.283C128.058 46.8228 125.951 47.6781 123.86 49.0853C121.767 50.4918 120.202 52.2423 119.355 53.676C118.492 55.1091 118.269 56.1376 118.346 56.1616C118.454 56.2071 118.841 55.2658 119.775 53.9642C120.696 52.6582 122.24 51.05 124.257 49.6934C126.274 48.3349 128.301 47.4215 129.767 46.764C131.239 46.1116 132.156 45.7064 132.122 45.6072Z" fill="#3E4C96"/>
<path d="M167.979 56.5706C167.926 56.4245 165.642 57.6793 161.61 58.3096C159.602 58.6048 157.164 58.7079 154.512 58.3115C153.187 58.1162 151.813 57.7963 150.434 57.3241C149.056 56.8455 147.666 56.2317 146.269 55.53C143.477 54.1292 140.863 52.6152 138.303 51.598C135.746 50.5588 133.257 50.1093 131.169 50.1296C129.072 50.1466 127.414 50.6757 126.373 51.1954C125.855 51.4685 125.466 51.7024 125.227 51.8983C124.982 52.0842 124.862 52.191 124.876 52.2112C124.915 52.2707 125.44 51.8964 126.486 51.4545C127.533 51.0285 129.143 50.5974 131.166 50.6454C133.181 50.6909 135.581 51.1764 138.056 52.222C140.547 53.2505 143.128 54.767 145.954 56.1862C147.366 56.8955 148.791 57.5194 150.212 58.003C151.636 58.4809 153.056 58.7957 154.42 58.9778C157.152 59.3482 159.651 59.187 161.69 58.8191C163.734 58.4405 165.325 57.8728 166.386 57.4113C166.921 57.1869 167.32 56.9777 167.586 56.8285C167.855 56.6818 167.989 56.5933 167.979 56.5706Z" fill="#3E4C96"/>
<path d="M166.715 52.5594C166.672 52.4178 165.179 53.1473 162.619 53.1252C161.346 53.1277 159.835 52.9021 158.198 52.4747C156.56 52.0411 154.802 51.3906 152.982 50.6282C151.157 49.8602 149.406 49.1231 147.76 48.575C146.117 48.0275 144.584 47.6622 143.273 47.53C141.963 47.3922 140.89 47.4377 140.165 47.5579C139.439 47.6723 139.053 47.8025 139.061 47.8442C139.077 47.982 140.674 47.6299 143.207 48.0415C144.47 48.2343 145.946 48.6401 147.548 49.2116C149.152 49.7843 150.878 50.5328 152.71 51.3034C154.548 52.0733 156.347 52.7181 158.038 53.1271C159.729 53.5298 161.305 53.71 162.627 53.6404C163.948 53.5778 165.002 53.3338 165.69 53.0683C166.381 52.8104 166.732 52.5974 166.715 52.5594Z" fill="#3E4C96"/>
<path d="M123.526 93.0597C116.471 93.0597 110.731 87.2129 110.731 80.0266C110.731 72.8403 116.471 66.9941 123.526 66.9941C130.58 66.9941 136.32 72.8409 136.32 80.0266C136.32 87.2135 130.58 93.0597 123.526 93.0597ZM123.526 67.8096C116.912 67.8096 111.532 73.2897 111.532 80.0266C111.532 86.7634 116.912 92.2442 123.526 92.2442C130.139 92.2442 135.519 86.7634 135.519 80.0266C135.519 73.2904 130.139 67.8096 123.526 67.8096Z" fill="white"/>
<path d="M157.606 97.4288C150.551 97.4288 144.812 91.582 144.812 84.3957C144.812 77.2094 150.551 71.3633 157.606 71.3633C164.661 71.3633 170.4 77.2101 170.4 84.3957C170.4 91.5827 164.661 97.4288 157.606 97.4288ZM157.606 72.1788C150.992 72.1788 145.612 77.6589 145.612 84.3957C145.612 91.1326 150.992 96.6133 157.606 96.6133C164.219 96.6133 169.6 91.1326 169.6 84.3957C169.6 77.6595 164.219 72.1788 157.606 72.1788Z" fill="white"/>
<path d="M169.737 86.4905C174.477 86.4501 179.205 86.9855 183.796 88.2024C188.071 89.3358 192.741 92.0775 192.923 97.1094C192.938 97.5159 193.559 97.5171 193.544 97.1094C193.38 92.5933 189.809 89.7069 185.951 88.2245C180.912 86.2882 175.075 85.8129 169.736 85.8584C169.337 85.8622 169.336 86.4943 169.737 86.4905Z" fill="white"/>
<path d="M136.087 82.4648C138.49 79.6751 142.682 79.8426 144.862 82.8289C145.097 83.1519 145.637 82.8371 145.397 82.5097C142.996 79.2193 138.336 78.8963 135.647 82.0179C135.385 82.3232 135.822 82.772 136.087 82.4648Z" fill="white"/>
<path d="M381.427 247.707H307.645V241.519C307.645 232.72 314.648 225.586 323.286 225.586H365.785C374.424 225.586 381.427 232.72 381.427 241.519V247.707Z" fill="#9ED5E7"/>
<path d="M307.842 238.99H381.228C381.019 237.66 380.649 236.385 380.138 235.186H308.932C308.421 236.385 308.05 237.66 307.842 238.99Z" fill="#86C3D1"/>
<path d="M251.626 92.7852C247.225 100.778 249.477 111.91 256.621 117.479C258.078 118.614 259.951 119.564 261.694 118.981C262.644 118.663 263.401 117.931 264.076 117.179C269.026 111.67 271.308 103.785 270.083 96.4219" fill="#2C2F5C"/>
<path d="M307.305 195.589C309.789 195.599 311.998 193.984 313.727 192.168C315.457 190.352 316.93 188.245 318.96 186.787C322.843 183.996 328.554 184.217 332.218 187.3C332.531 187.563 332.851 187.855 333.25 187.929C333.649 188.004 334.139 187.744 334.141 187.331C334.141 187.125 334.026 186.94 333.91 186.772C331.531 183.325 327.082 181.501 323.021 182.307C325.118 180.927 327.773 180.76 330.258 181.015C332.742 181.27 335.19 181.903 337.687 181.959C338.509 181.978 339.617 181.626 339.526 180.794C339.47 180.28 338.953 179.97 338.49 179.758C333.358 177.407 327.383 177.028 322.004 178.71C326.28 176.323 331.389 175.522 336.173 176.49C338.337 176.928 340.455 177.716 342.661 177.746C342.711 176.481 341.448 175.615 340.312 175.101C334.483 172.463 327.677 172.147 321.636 174.233C325.539 172.39 329.817 171.376 334.119 171.274C336.138 171.227 338.505 171.217 339.702 169.561C336.135 168.153 332.154 168.133 328.392 168.845C324.631 169.559 321.036 170.969 317.467 172.374C321.236 169.959 325.285 167.185 326.572 162.843C326.125 161.929 324.763 162.476 323.988 163.124C315.997 169.803 307.982 176.506 300.882 184.159" fill="#FF8698"/>
<path d="M250.435 93.1104C247.259 78.6442 249.733 60.9901 262.259 51.7493C265.788 49.1455 270.447 47.8141 274.66 49.0266C275.681 49.3199 276.675 49.7574 277.734 49.8307C278.846 49.9072 279.938 49.5772 281.025 49.3288C291.335 46.9677 302.973 50.9433 311.835 56.1965C324.01 63.4138 329.442 80.3794 323.85 93.3518C321.598 98.5734 318.203 103.183 314.838 107.741" fill="#2C2F5C"/>
<path d="M315.381 95.6562C314.569 105.428 313.757 115.199 312.945 124.97C308.157 124.002 303.475 122.491 299.013 120.474" fill="#EF7089"/>
<path d="M216.509 249.454H243.198L255.618 248.229C257.39 248.747 259.193 249.151 261.012 249.454H276.468C278.073 249.185 279.666 248.833 281.235 248.396C279.109 236.026 278.204 223.439 278.54 210.886C282.898 223.334 283.321 237.019 287.846 249.455H309.199C310.218 249.144 311.23 248.808 312.231 248.442C308.292 241.649 305.295 221.534 303.355 213.896C301.702 207.382 300.819 200.695 299.602 194.083C297.201 181.051 293.484 168.272 288.529 156.011C286.894 151.967 285.067 147.889 282.086 144.742C278.542 140.999 273.909 139.224 269.365 137.086C272.016 126.933 275.461 116.995 279.656 107.397C274.102 106.486 268.549 105.576 262.995 104.665C262.318 104.554 261.598 104.448 260.97 104.725C260.336 105.003 259.917 105.617 259.533 106.201L247.21 124.914C246.557 125.906 245.885 126.918 244.941 127.628C243.801 128.484 242.373 128.818 240.988 129.132C230.684 131.469 222.952 141.544 218.634 150.754C213.361 161.997 211.117 174.45 209.624 186.727C207.134 207.211 206.525 228.003 209.017 248.486C211.505 248.876 214.005 249.194 216.509 249.454Z" fill="white"/>
<path d="M262.545 205.105C265.56 194.749 265.807 183.798 266.032 172.999C266.307 159.795 266.581 146.549 265.209 133.416C265.127 132.63 264.822 131.627 264.046 131.61L251.597 130.141C254.781 155.197 258.431 180.19 262.545 205.105Z" fill="#33B7DB"/>
<path d="M250.92 133.671C253.753 135.793 257.086 137.281 260.582 137.668C263.605 138.003 266.66 137.504 269.534 136.458C272.162 126.523 275.546 116.795 279.655 107.395C274.101 106.484 268.548 105.574 262.994 104.663C262.318 104.552 261.598 104.446 260.969 104.723C260.336 105.002 259.917 105.616 259.533 106.2C255.425 112.437 251.317 118.675 247.209 124.913C246.605 125.83 245.976 126.754 245.14 127.45C246.694 129.845 248.649 131.97 250.92 133.671Z" fill="#F47D94"/>
<path d="M293.692 133.668C286.48 135.747 277.401 134.98 271.206 130.775C263.509 125.548 257.984 116.144 259.193 106.636C255.75 106.948 252.198 105.588 249.81 103.043C243.31 96.1132 247.941 78.2752 259.289 83.4993C260.372 77.6974 261.522 71.7223 264.235 66.4432C266.95 61.159 270.118 59.3625 275.688 57.9389C283.375 55.9741 291.705 56.7302 298.93 60.0483C309.733 65.0101 316.939 76.1771 316.681 88.3074C316.475 98.0091 313.335 107.362 308.755 115.793C305.464 121.853 301.783 130.933 294.867 133.299C294.482 133.43 294.089 133.553 293.692 133.668Z" fill="#FF8698"/>
<path d="M258.275 102.643C258.357 102.673 258.826 101.708 259.165 100.006C259.5 98.3249 259.647 95.8285 258.785 93.2683C257.917 90.7037 256.172 88.8477 254.699 87.9563C253.215 87.0372 252.112 86.9531 252.106 87.0296C252.066 87.156 253.086 87.4279 254.404 88.4045C255.718 89.3566 257.269 91.1342 258.077 93.5174C258.882 95.9075 258.834 98.2693 258.64 99.9223C258.447 101.589 258.162 102.607 258.275 102.643Z" fill="#D86178"/>
<path d="M256.07 98.5703C256.165 98.4983 255.918 98.0652 255.705 97.3319C255.593 96.9672 255.515 96.5196 255.473 96.0228C255.447 95.5234 255.466 94.9734 255.565 94.4057C255.675 93.8399 255.853 93.3203 256.055 92.8652C256.272 92.4176 256.503 92.0288 256.738 91.7311C257.197 91.1267 257.582 90.8145 257.519 90.712C257.478 90.6343 256.971 90.7892 256.348 91.3657C256.035 91.6489 255.723 92.0522 255.443 92.5415C255.177 93.0371 254.952 93.6231 254.828 94.2654C254.715 94.9095 254.715 95.5385 254.787 96.0986C254.874 96.6581 255.021 97.1492 255.212 97.5292C255.587 98.2953 256.004 98.6279 256.07 98.5703Z" fill="#D86178"/>
<path d="M258 85.1177C262.133 88.9018 268.847 88.3037 273.492 85.1955C278.137 82.0872 281.147 77.0489 283.8 72.0751C284.302 71.1339 284.827 70.1547 285.684 69.5339C286.388 69.0244 287.256 68.8044 288.115 68.7121C294.127 68.0654 299.188 73.0101 303.111 77.6962C307.035 82.3824 311.549 87.6217 317.591 87.8726C318.41 84.483 317.425 80.9423 316.447 77.597C315.285 73.6233 314.078 69.556 311.628 66.2454C309.891 63.8976 307.593 62.0309 305.144 60.4739C293.124 52.8324 276.817 52.8603 264.821 60.5422C262.888 61.7806 261.025 63.2396 259.791 65.198C258.533 67.1962 258.013 69.5731 257.557 71.9013C256.9 75.2498 256.326 78.6154 255.835 81.9936" fill="#2C2F5C"/>
<path d="M307.482 100.064C311.599 97.4665 308.837 95.2028 305.46 95.1883C303.46 95.18 299.397 95.1939 298.664 97.6966C298.214 99.2302 299.821 100.606 301.342 101.009C303.401 101.554 305.673 101.204 307.482 100.064Z" fill="#2C2F5C"/>
<path d="M301.898 113.658C302.088 113.739 302.755 112.569 303.386 111.043C304.017 109.517 304.374 108.213 304.184 108.131C303.993 108.049 303.327 109.22 302.695 110.746C302.064 112.272 301.707 113.576 301.898 113.658Z" fill="#D86178"/>
<path d="M298.318 127.501C298.445 127.319 297.027 126.281 296.317 124.328C295.562 122.394 295.934 120.655 295.72 120.607C295.631 120.58 295.4 120.987 295.284 121.726C295.165 122.459 295.215 123.526 295.618 124.601C296.025 125.675 296.689 126.502 297.259 126.966C297.832 127.437 298.27 127.582 298.318 127.501Z" fill="#D86178"/>
<path d="M227.186 249.452C227.045 241.602 227.031 231.162 227.298 219.709C227.454 213.61 227.668 207.801 227.918 202.521C228.19 197.242 228.463 192.488 228.765 188.502C228.902 186.508 229.041 184.705 229.18 183.123C229.304 181.636 229.416 180.285 229.518 179.062C229.715 176.833 229.788 175.595 229.715 175.586C229.641 175.577 229.427 176.796 229.102 179.013C228.931 180.12 228.767 181.481 228.581 183.061C228.385 184.64 228.194 186.441 228.007 188.436C227.607 192.422 227.255 197.179 226.928 202.466C226.623 207.753 226.379 213.572 226.223 219.682C225.956 231.145 226.075 241.595 226.39 249.452H227.186Z" fill="#E4EFF2"/>
<path d="M276.972 191.419C277.17 191.41 277.116 186.521 276.851 180.499C276.587 174.477 276.212 169.602 276.015 169.611C275.817 169.62 275.871 174.51 276.135 180.532C276.4 186.554 276.774 191.428 276.972 191.419Z" fill="#E4EFF2"/>
<path d="M314.002 188.37C312.854 183.867 312.031 181.147 309.656 177.432C308.741 176.001 308.354 175.376 307.251 174.323C304.962 174.981 302.651 175.864 300.698 176.361C296.38 177.461 292.052 178.533 287.652 179.242C280.177 180.446 264.464 185.823 258.846 178.177C252.971 170.179 254.317 155.852 252.515 146.457C251.594 141.659 249.521 135.72 244.238 134.52C238.855 133.296 233.185 135.834 229.642 139.955C224.16 146.33 223.815 156.474 223.917 164.451C224.1 178.86 226.82 200.773 240.721 208.616C244.778 210.905 249.505 211.61 254.132 211.911C265.706 212.666 277.4 211.026 288.395 207.293C297.713 204.129 306.424 199.133 315.28 194.654C314.953 192.559 314.537 190.471 314.002 188.37Z" fill="white"/>
<path d="M312.831 184.174C311.621 184.862 310.294 185.599 308.845 186.373C308.063 184.274 307.244 182.293 306.431 180.471C305.573 178.589 304.731 176.876 303.935 175.374C303.756 175.432 303.58 175.49 303.404 175.548C304.168 177.084 304.986 178.832 305.829 180.748C306.622 182.592 307.43 184.594 308.209 186.71C306.683 187.517 305.046 188.357 303.275 189.22C297.559 192.011 290.581 194.991 282.596 197.587C278.612 198.893 274.37 200.128 269.868 200.685C267.619 200.95 265.308 201.018 262.991 200.782C260.674 200.555 258.367 199.949 256.178 198.99C253.982 198.038 251.988 196.705 250.206 195.182C248.426 193.653 246.852 191.926 245.507 190.077C242.802 186.376 241.01 182.248 239.834 178.18C238.653 174.104 238.057 170.084 237.706 166.314C237.359 162.539 237.26 159.001 237.208 155.77C237.167 152.575 237.129 149.655 237.096 147.041C237.047 144.47 236.962 142.255 236.848 140.447C236.741 138.639 236.599 137.24 236.493 136.292C236.441 135.901 236.395 135.547 236.351 135.217C236.349 135.209 236.349 135.205 236.347 135.197C236.325 135.206 236.3 135.213 236.277 135.222C236.277 135.222 236.277 135.223 236.277 135.224C236.3 135.557 236.323 135.912 236.349 136.305C236.408 137.256 236.505 138.655 236.57 140.461C236.64 142.267 236.684 144.477 236.695 147.045C236.697 149.66 236.699 152.58 236.701 155.776C236.721 159.012 236.79 162.565 237.114 166.368C237.441 170.167 238.02 174.229 239.2 178.369C240.373 182.497 242.186 186.716 244.942 190.503C246.313 192.395 247.92 194.167 249.746 195.737C251.573 197.302 253.625 198.676 255.891 199.66C258.151 200.65 260.536 201.274 262.917 201.504C265.297 201.744 267.66 201.67 269.948 201.396C274.528 200.819 278.804 199.555 282.797 198.227C290.804 195.585 297.789 192.544 303.495 189.684C305.242 188.81 306.856 187.959 308.361 187.138C308.58 187.739 308.797 188.343 309.009 188.961C309.919 191.657 310.674 194.264 311.31 196.692C311.513 196.587 311.717 196.481 311.92 196.375C311.316 193.963 310.585 191.383 309.686 188.721C309.462 188.066 309.23 187.426 308.997 186.791C310.433 185.999 311.746 185.244 312.944 184.536C312.908 184.413 312.87 184.294 312.831 184.174Z" fill="#E4EFF2"/>
<path d="M236.752 168.595C240.032 168.49 242.579 164.771 242.441 160.289C242.302 155.806 239.532 152.258 236.252 152.363C232.972 152.468 230.426 156.186 230.564 160.669C230.702 165.151 233.473 168.7 236.752 168.595Z" fill="#1F68EB"/>
<path d="M303.603 200.081C303.585 200.047 303.148 200.234 302.332 200.62C301.517 201.005 300.332 201.605 298.766 202.293C295.656 203.706 291.088 205.627 285.247 207.364C283.796 207.83 282.242 208.194 280.638 208.627C279.827 208.811 279.001 208.998 278.16 209.188C277.32 209.389 276.458 209.555 275.577 209.711C273.824 210.066 271.993 210.318 270.109 210.593C268.218 210.803 266.272 211.029 264.266 211.133C260.261 211.377 256.038 211.365 251.69 210.977C251.147 210.922 250.602 210.866 250.055 210.811C249.507 210.756 248.953 210.71 248.423 210.597C247.887 210.5 247.348 210.403 246.808 210.305C246.28 210.151 245.752 209.997 245.22 209.843C243.123 209.142 241.107 208.092 239.283 206.711C237.457 205.327 235.908 203.63 234.551 201.837C233.855 200.95 233.269 199.989 232.67 199.051C232.121 198.079 231.565 197.12 231.099 196.121C229.133 192.165 227.93 188.058 226.849 184.095C224.651 176.2 223.087 168.973 222.416 162.816C221.735 156.662 221.883 151.624 222.329 148.192C222.453 147.371 222.567 146.613 222.671 145.917C222.764 145.256 222.915 144.712 222.995 144.262C223.175 143.366 223.253 142.89 223.218 142.879C223.183 142.869 223.034 143.325 222.784 144.208C222.67 144.652 222.485 145.193 222.358 145.853C222.223 146.549 222.075 147.308 221.915 148.131C221.336 151.576 221.068 156.673 221.659 162.897C222.239 169.123 223.74 176.426 225.895 184.366C226.946 188.323 228.158 192.549 230.155 196.599C230.631 197.623 231.199 198.611 231.762 199.613C232.378 200.583 232.981 201.574 233.701 202.497C235.105 204.36 236.719 206.132 238.637 207.587C240.553 209.039 242.682 210.148 244.895 210.881C245.454 211.043 246.012 211.203 246.568 211.364C247.136 211.466 247.702 211.567 248.265 211.668C248.83 211.784 249.387 211.829 249.942 211.883C250.497 211.937 251.05 211.992 251.6 212.046C256.007 212.424 260.282 212.414 264.331 212.14C266.358 212.021 268.323 211.776 270.232 211.548C272.133 211.253 273.979 210.98 275.745 210.603C276.632 210.435 277.501 210.258 278.346 210.045C279.191 209.842 280.022 209.643 280.838 209.447C282.451 208.989 284.011 208.598 285.467 208.106C291.325 206.26 295.876 204.217 298.945 202.679C300.49 201.929 301.649 201.265 302.434 200.816C303.217 200.366 303.621 200.113 303.603 200.081Z" fill="#E4EFF2"/>
<path opacity="0.41" d="M191.984 176.974C188.998 176.974 186.577 174.509 186.577 171.467V130.213H197.39V171.467C197.39 174.508 194.97 176.974 191.984 176.974Z" fill="white"/>
<path d="M191.985 173.815C189.963 173.815 188.325 172.146 188.325 170.087V137.766H195.645V170.087C195.645 172.146 194.006 173.815 191.985 173.815Z" fill="#33B7DB"/>
<path d="M197.783 131.536H186.188C185.548 131.536 185.029 131.008 185.029 130.356C185.029 129.704 185.548 129.176 186.188 129.176H197.783C198.422 129.176 198.941 129.704 198.941 130.356C198.941 131.008 198.422 131.536 197.783 131.536Z" fill="white"/>
<path opacity="0.49" d="M180.603 200.229V181.021H170.978V200.229C163.716 202.358 158.397 209.162 158.397 217.244C158.397 227.029 166.184 234.962 175.79 234.962C185.396 234.962 193.183 227.03 193.183 217.244C193.183 209.162 187.865 202.358 180.603 200.229Z" fill="#C3E7FD"/>
<path d="M172.564 216.921C168.98 217.554 164.393 217.486 160.602 216.139C160.577 216.506 160.548 216.872 160.548 217.245C160.548 225.821 167.372 232.773 175.791 232.773C184.21 232.773 191.034 225.821 191.034 217.245C191.034 215.649 190.796 214.11 190.357 212.66C184.393 213.372 178.028 215.957 172.564 216.921Z" fill="#1F68EB"/>
<path d="M181.057 183.257H170.524C169.554 183.257 168.768 182.456 168.768 181.467C168.768 180.479 169.554 179.678 170.524 179.678H181.057C182.027 179.678 182.814 180.479 182.814 181.467C182.813 182.455 182.027 183.257 181.057 183.257Z" fill="#C3E7FD"/>
<path opacity="0.49" d="M250.409 224.612C246.792 224.612 243.859 221.625 243.859 217.94V167.963H256.958V217.94C256.958 221.625 254.026 224.612 250.409 224.612Z" fill="#C3E7FD"/>
<path d="M250.41 220.785C247.961 220.785 245.976 218.763 245.976 216.269V177.113H254.843V216.269C254.844 218.763 252.858 220.785 250.41 220.785Z" fill="#33B7DB"/>
<path d="M257.433 169.566H243.387C242.611 169.566 241.983 168.926 241.983 168.136C241.983 167.347 242.611 166.707 243.387 166.707H257.433C258.208 166.707 258.836 167.347 258.836 168.136C258.837 168.925 258.208 169.566 257.433 169.566Z" fill="#C3E7FD"/>
<path opacity="0.49" d="M229.992 224.612C226.375 224.612 223.442 221.625 223.442 217.94V167.963H236.541V217.94C236.541 221.625 233.609 224.612 229.992 224.612Z" fill="#C3E7FD"/>
<path d="M229.993 220.785C227.544 220.785 225.559 218.763 225.559 216.269V177.113H234.426V216.269C234.427 218.763 232.441 220.785 229.993 220.785Z" fill="#1F68EB"/>
<path d="M237.016 169.566H222.97C222.194 169.566 221.566 168.926 221.566 168.136C221.566 167.347 222.194 166.707 222.97 166.707H237.016C237.791 166.707 238.419 167.347 238.419 168.136C238.419 168.925 237.791 169.566 237.016 169.566Z" fill="#C3E7FD"/>
<path d="M210.179 134.664H158.614C156.584 134.664 154.938 136.341 154.938 138.408C154.938 140.476 156.584 142.153 158.614 142.153H210.179V134.664Z" fill="#5182B7"/>
<path d="M265.356 195.98H154.567C152.513 195.98 150.848 194.284 150.848 192.191V190.807C150.848 188.714 152.513 187.018 154.567 187.018H265.355C267.409 187.018 269.075 188.714 269.075 190.807V192.191C269.075 194.284 267.41 195.98 265.356 195.98Z" fill="#5182B7"/>
<path d="M209.961 246.595C207.931 246.595 206.285 244.918 206.285 242.85V115.899C206.285 113.831 207.931 112.154 209.961 112.154C211.991 112.154 213.636 113.831 213.636 115.899V242.85C213.636 244.918 211.991 246.595 209.961 246.595Z" fill="#5B8BC9"/>
<path d="M233.814 252.012H186.109V245.191C186.109 240.149 190.121 236.062 195.07 236.062H224.852C229.801 236.062 233.813 240.149 233.813 245.191V252.012H233.814Z" fill="#5B8BC9"/>
<path d="M402.991 252.985H42.3289C39.7157 252.985 37.5977 250.827 37.5977 248.165C37.5977 245.503 39.7157 243.346 42.3289 243.346H402.992C405.605 243.346 407.723 245.504 407.723 248.165C407.722 250.827 405.604 252.985 402.991 252.985Z" fill="#1F68EB"/>
<path d="M367.41 73.7754C351.047 73.7754 337.781 87.2883 337.781 103.957C337.781 107.868 338.519 111.6 339.848 115.03L332.866 127.523L345.646 124.43C351.059 130.398 358.804 134.14 367.41 134.14C383.774 134.14 397.039 120.627 397.039 103.957C397.04 87.2883 383.774 73.7754 367.41 73.7754Z" fill="white"/>
<path d="M369.56 103.417C369.56 101.795 368.269 100.48 366.677 100.48C365.086 100.48 363.795 101.795 363.795 103.417C363.795 105.038 365.086 106.353 366.677 106.353C368.27 106.353 369.56 105.038 369.56 103.417Z" fill="#1F68EB"/>
<path d="M366.677 123.376C362.839 123.376 359.834 114.609 359.834 103.417C359.834 92.2257 362.84 83.459 366.677 83.459C370.515 83.459 373.521 92.2257 373.521 103.417C373.521 114.609 370.514 123.376 366.677 123.376ZM366.677 83.9672C363.238 83.9672 360.333 92.8736 360.333 103.417C360.333 113.96 363.238 122.867 366.677 122.867C370.116 122.867 373.022 113.96 373.022 103.417C373.022 92.8743 370.116 83.9672 366.677 83.9672Z" fill="#33B7DB"/>
<path d="M355.234 118.395C354.199 118.395 353.388 118.103 352.824 117.528C350.11 114.764 354.071 106.4 361.839 98.4868C367.739 92.4763 374.283 88.4375 378.122 88.4375C379.157 88.4375 379.969 88.7289 380.532 89.3035C381.859 90.6551 381.624 93.4005 379.871 97.0348C378.156 100.588 375.19 104.605 371.517 108.345C365.617 114.356 359.074 118.395 355.234 118.395ZM378.122 88.9464C374.407 88.9464 368.005 92.9245 362.192 98.8465C354.874 106.301 350.746 114.692 353.177 117.169C353.644 117.645 354.336 117.886 355.234 117.886C358.95 117.886 365.352 113.908 371.164 107.986C374.799 104.284 377.732 100.315 379.423 96.8103C381.051 93.4366 381.327 90.8315 380.18 89.6626C379.713 89.1872 379.021 88.9464 378.122 88.9464Z" fill="#33B7DB"/>
<path d="M366.676 110.39C355.69 110.39 347.084 107.328 347.084 103.419C347.084 99.51 355.69 96.4473 366.676 96.4473C377.663 96.4473 386.269 99.5094 386.269 103.419C386.269 107.328 377.663 110.39 366.676 110.39ZM366.676 96.9555C356.326 96.9555 347.583 99.9153 347.583 103.418C347.583 106.921 356.326 109.881 366.676 109.881C377.026 109.881 385.77 106.921 385.77 103.418C385.769 99.9153 377.026 96.9555 366.676 96.9555Z" fill="#33B7DB"/>
<path d="M378.121 118.396C374.282 118.396 367.739 114.358 361.839 108.347C358.166 104.607 355.2 100.59 353.485 97.0367C351.732 93.4025 351.496 90.657 352.824 89.3055C353.387 88.7309 354.199 88.4395 355.234 88.4395C359.074 88.4395 365.617 92.4783 371.517 98.4888C379.286 106.402 383.245 114.766 380.532 117.53C379.968 118.104 379.157 118.396 378.121 118.396ZM355.233 88.9477C354.335 88.9477 353.643 89.1886 353.176 89.6646C352.029 90.8334 352.305 93.4385 353.933 96.8123C355.624 100.316 358.557 104.286 362.192 107.988C368.005 113.909 374.407 117.888 378.122 117.888C379.02 117.888 379.713 117.647 380.179 117.171C382.611 114.694 378.483 106.303 371.164 98.8485C365.351 92.9258 358.949 88.9477 355.233 88.9477Z" fill="#33B7DB"/>
<path d="M354.04 94.4854C354.04 93.6984 353.414 93.0605 352.641 93.0605C351.868 93.0605 351.241 93.6984 351.241 94.4854C351.241 95.2724 351.867 95.9109 352.641 95.9109C353.414 95.9109 354.04 95.2724 354.04 94.4854Z" fill="#1F68EB"/>
<path d="M381.597 95.3708C381.597 94.5838 380.97 93.9453 380.197 93.9453C379.425 93.9453 378.798 94.5831 378.798 95.3708C378.798 96.1578 379.424 96.7963 380.197 96.7963C380.97 96.7957 381.597 96.1578 381.597 95.3708Z" fill="#1F68EB"/>
<path d="M354.513 110.908C354.513 110.121 353.886 109.482 353.113 109.482C352.341 109.482 351.714 110.12 351.714 110.908C351.714 111.695 352.34 112.333 353.113 112.333C353.886 112.333 354.513 111.695 354.513 110.908Z" fill="#1F68EB"/>
<path d="M371.939 118.142C371.939 117.355 371.313 116.717 370.539 116.717C369.767 116.717 369.141 117.355 369.141 118.142C369.141 118.929 369.767 119.567 370.539 119.567C371.313 119.567 371.939 118.929 371.939 118.142Z" fill="#1F68EB"/>
<path d="M87.317 97.1953C98.1398 97.1953 107.01 105.686 107.875 116.484L116.467 120.929L107.004 124.521C104.374 133.048 96.5549 139.233 87.317 139.233C75.9214 139.233 66.6836 129.823 66.6836 118.215C66.6836 106.607 75.9214 97.1953 87.317 97.1953Z" fill="white"/>
<path d="M85.2285 118.214C85.2285 117.124 86.0961 116.24 87.1659 116.24C88.2358 116.24 89.1034 117.124 89.1034 118.214C89.1034 119.304 88.2358 120.187 87.1659 120.187C86.0955 120.187 85.2285 119.304 85.2285 118.214Z" fill="#33B7DB"/>
<path d="M82.5654 118.214C82.5654 110.691 84.586 104.799 87.1657 104.799C89.7455 104.799 91.7654 110.692 91.7654 118.214C91.7654 125.736 89.7448 131.629 87.1657 131.629C84.5866 131.629 82.5654 125.736 82.5654 118.214ZM82.9012 118.214C82.9012 125.3 84.8541 131.287 87.1657 131.287C89.4774 131.287 91.4297 125.3 91.4297 118.214C91.4297 111.127 89.4767 105.14 87.1657 105.14C84.8541 105.14 82.9012 111.127 82.9012 118.214Z" fill="#323B7C"/>
<path d="M83.9146 121.528C81.446 119.014 79.4521 116.314 78.2996 113.926C77.1206 111.483 76.9629 109.637 77.8547 108.729C78.2339 108.342 78.7787 108.146 79.475 108.146C82.0554 108.146 86.454 110.861 90.4194 114.901C95.6416 120.22 98.3032 125.842 96.4793 127.7C96.1008 128.086 95.5553 128.282 94.859 128.282C92.2787 128.282 87.8801 125.568 83.9146 121.528ZM78.0918 108.97C77.321 109.756 77.5059 111.507 78.6006 113.775C79.7369 116.13 81.7085 118.798 84.1517 121.286C88.0588 125.266 92.3618 127.94 94.859 127.94C95.4628 127.94 95.9277 127.779 96.2423 127.459C97.8762 125.794 95.1017 120.154 90.1824 115.143C86.2753 111.162 81.9722 108.488 79.475 108.488C78.8712 108.488 78.4058 108.65 78.0918 108.97Z" fill="#323B7C"/>
<path d="M73.9971 118.213C73.9971 115.586 79.7821 113.527 87.1669 113.527C94.5511 113.527 100.336 115.586 100.336 118.213C100.336 120.841 94.5511 122.9 87.1669 122.9C79.7821 122.899 73.9971 120.841 73.9971 118.213ZM74.3328 118.213C74.3328 120.568 80.2102 122.558 87.1669 122.558C94.1235 122.558 100 120.568 100 118.213C100 115.859 94.1235 113.869 87.1669 113.869C80.2102 113.869 74.3328 115.859 74.3328 118.213Z" fill="#323B7C"/>
<path d="M77.8538 127.7C76.03 125.842 78.6916 120.22 83.9137 114.901C87.8792 110.861 92.2778 108.146 94.8581 108.146C95.5538 108.146 96.0993 108.342 96.4784 108.729C97.3708 109.637 97.2126 111.483 96.0335 113.926C94.8811 116.314 92.8872 119.014 90.4186 121.528C86.4525 125.568 82.0545 128.282 79.4741 128.282C78.7778 128.282 78.2324 128.086 77.8538 127.7ZM84.1508 115.143C79.2315 120.154 76.4569 125.794 78.0909 127.459C78.4049 127.779 78.8703 127.94 79.4741 127.94C81.9713 127.94 86.2744 125.266 90.1815 121.286C92.6241 118.798 94.5963 116.13 95.7325 113.775C96.8272 111.507 97.0121 109.756 96.2414 108.97C95.9274 108.65 95.462 108.488 94.8581 108.488C92.361 108.488 88.0579 111.162 84.1508 115.143Z" fill="#323B7C"/>
<path d="M95.6611 112.21C95.6611 111.681 96.0819 111.252 96.6013 111.252C97.1207 111.252 97.5415 111.681 97.5415 112.21C97.5415 112.739 97.1207 113.168 96.6013 113.168C96.0819 113.167 95.6611 112.739 95.6611 112.21Z" fill="#33B7DB"/>
<path d="M78.0779 113.763C78.5971 113.763 79.018 113.334 79.018 112.805C79.018 112.276 78.5971 111.848 78.0779 111.848C77.5586 111.848 77.1377 112.276 77.1377 112.805C77.1377 113.334 77.5586 113.763 78.0779 113.763Z" fill="#33B7DB"/>
<path d="M95.3438 123.249C95.3438 122.72 95.7645 122.291 96.2839 122.291C96.8033 122.291 97.2241 122.72 97.2241 123.249C97.2241 123.778 96.8027 124.207 96.2839 124.207C95.7651 124.207 95.3438 123.778 95.3438 123.249Z" fill="#33B7DB"/>
<path d="M83.6309 128.111C83.6309 127.582 84.0516 127.152 84.5717 127.152C85.0911 127.152 85.5118 127.581 85.5118 128.111C85.5118 128.64 85.0911 129.068 84.5717 129.068C84.0516 129.068 83.6309 128.64 83.6309 128.111Z" fill="#33B7DB"/>
<path d="M67.472 10.3867C81.7383 10.3867 93.3033 22.1675 93.3033 36.7C93.3033 40.1092 92.6598 43.3629 91.5018 46.353L97.5884 57.245L86.4466 54.5489C81.7272 59.7521 74.9747 63.0134 67.472 63.0134C53.2056 63.0134 41.6406 51.2326 41.6406 36.7C41.6406 22.1675 53.2056 10.3867 67.472 10.3867Z" fill="#1F68EB"/>
<path d="M56.5502 26.7895C54.9491 33.9202 58.2965 41.6767 62.7286 47.0702C63.2431 47.6961 64.1162 46.7965 63.6061 46.1764C59.4824 41.1584 56.253 33.7767 57.7467 27.1252C57.9254 26.3319 56.7289 25.9949 56.5502 26.7895Z" fill="white"/>
<path d="M56.0458 29.5876C64.2287 28.1147 72.5072 30.5415 78.6856 36.1942C79.2789 36.7372 80.1601 35.8459 79.5631 35.3004C73.0291 29.3221 64.3597 26.8131 55.7157 28.3688C54.9288 28.5098 55.2633 29.7286 56.0458 29.5876Z" fill="white"/>
<path d="M61.8659 49.0065C70.3094 47.4192 77.5391 42.1837 81.8173 34.6061C82.217 33.8981 81.1446 33.2615 80.7456 33.9676C76.6138 41.2854 69.6814 46.256 61.5357 47.7871C60.7495 47.935 61.0834 49.1532 61.8659 49.0065Z" fill="white"/>
<path d="M55.9988 33.0278C58.4106 33.0278 60.3658 31.0361 60.3658 28.5793C60.3658 26.1225 58.4106 24.1309 55.9988 24.1309C53.587 24.1309 51.6318 26.1225 51.6318 28.5793C51.6318 31.0361 53.587 33.0278 55.9988 33.0278Z" fill="#33B7DB"/>
<path d="M81.1424 38.5629C83.5542 38.5629 85.5093 36.5713 85.5093 34.1145C85.5093 31.6577 83.5542 29.666 81.1424 29.666C78.7306 29.666 76.7754 31.6577 76.7754 34.1145C76.7754 36.5713 78.7306 38.5629 81.1424 38.5629Z" fill="#33B7DB"/>
<path d="M66.913 47.9391C66.913 49.9316 65.3275 51.5461 63.372 51.5461C61.4166 51.5461 59.8311 49.931 59.8311 47.9391C59.8311 45.9472 61.4166 44.332 63.372 44.332C65.3275 44.332 66.913 45.9465 66.913 47.9391Z" fill="#33B7DB"/>
<g opacity="0.44">
<path d="M337.013 32.6361C337.688 32.6361 338.235 31.2409 338.235 29.5202C338.235 27.7995 337.688 26.4043 337.013 26.4043C336.339 26.4043 335.792 27.7995 335.792 29.5202C335.792 31.2409 336.339 32.6361 337.013 32.6361Z" fill="#C3E7FD"/>
<path d="M334.158 34.6288C334.158 33.9417 332.953 33.3848 331.466 33.3848C329.98 33.3848 328.774 33.9417 328.774 34.6288C328.774 35.316 329.98 35.8723 331.466 35.8723C332.953 35.8729 334.158 35.316 334.158 34.6288Z" fill="#C3E7FD"/>
<path d="M344.4 34.4637C344.4 33.733 343.263 33.1406 341.861 33.1406C340.458 33.1406 339.321 33.733 339.321 34.4637C339.321 35.1945 340.458 35.7868 341.861 35.7868C343.263 35.7868 344.4 35.1945 344.4 34.4637Z" fill="#C3E7FD"/>
<path d="M337.093 43.0212C337.768 43.0212 338.315 41.6633 338.315 39.9881C338.315 38.3129 337.768 36.9551 337.093 36.9551C336.419 36.9551 335.872 38.3129 335.872 39.9881C335.873 41.6633 336.419 43.0212 337.093 43.0212Z" fill="#C3E7FD"/>
</g>
<g opacity="0.44">
<path d="M82.9889 78.7435C83.6634 78.7435 84.2102 77.3483 84.2102 75.6276C84.2102 73.9069 83.6634 72.5117 82.9889 72.5117C82.3143 72.5117 81.7676 73.9069 81.7676 75.6276C81.7682 77.3483 82.3149 78.7435 82.9889 78.7435Z" fill="#C3E7FD"/>
<path d="M80.1341 80.7363C80.1341 80.0491 78.9289 79.4922 77.442 79.4922C75.9552 79.4922 74.75 80.0491 74.75 80.7363C74.75 81.4234 75.9552 81.9797 77.442 81.9797C78.9289 81.9803 80.1341 81.4234 80.1341 80.7363Z" fill="#C3E7FD"/>
<path d="M90.3756 80.5711C90.3756 79.8404 89.2388 79.248 87.8363 79.248C86.4338 79.248 85.2969 79.8404 85.2969 80.5711C85.2969 81.3019 86.4338 81.8942 87.8363 81.8942C89.2388 81.8949 90.3756 81.3019 90.3756 80.5711Z" fill="#C3E7FD"/>
<path d="M83.0683 89.1286C83.7429 89.1286 84.2896 87.7708 84.2896 86.0956C84.2896 84.4204 83.7429 83.0625 83.0683 83.0625C82.3938 83.0625 81.8477 84.4204 81.8477 86.0956C81.8477 87.7708 82.3938 89.1286 83.0683 89.1286Z" fill="#C3E7FD"/>
</g>
<g opacity="0.44">
<path d="M269.501 6.23175C270.176 6.23175 270.722 4.83659 270.722 3.11588C270.722 1.39516 270.176 0 269.501 0C268.826 0 268.28 1.39516 268.28 3.11588C268.28 4.83659 268.827 6.23175 269.501 6.23175Z" fill="#C3E7FD"/>
<path d="M266.645 8.2265C266.645 7.53935 265.44 6.98242 263.953 6.98242C262.466 6.98242 261.261 7.53935 261.261 8.2265C261.261 8.91365 262.466 9.47057 263.953 9.47057C265.44 9.47057 266.645 8.91365 266.645 8.2265Z" fill="#C3E7FD"/>
<path d="M276.89 8.0581C276.89 7.32733 275.753 6.73438 274.351 6.73438C272.948 6.73438 271.812 7.3267 271.812 8.0581C271.812 8.78887 272.948 9.3812 274.351 9.3812C275.753 9.38183 276.89 8.78887 276.89 8.0581Z" fill="#C3E7FD"/>
<path d="M269.581 16.6169C270.256 16.6169 270.802 15.259 270.802 13.5838C270.802 11.9086 270.256 10.5508 269.581 10.5508C268.906 10.5508 268.36 11.9086 268.36 13.5838C268.36 15.259 268.906 16.6169 269.581 16.6169Z" fill="#C3E7FD"/>
</g>
<g opacity="0.44">
<path d="M122.399 17.2708C123.074 17.2708 123.62 15.8758 123.62 14.1549C123.62 12.4341 123.074 11.0391 122.399 11.0391C121.725 11.0391 121.179 12.4341 121.179 14.1549C121.179 15.8758 121.725 17.2708 122.399 17.2708Z" fill="#C3E7FD"/>
<path d="M119.544 19.2656C119.544 18.5784 118.339 18.0215 116.852 18.0215C115.365 18.0215 114.16 18.5784 114.16 19.2656C114.16 19.9527 115.365 20.509 116.852 20.509C118.339 20.5096 119.544 19.9527 119.544 19.2656Z" fill="#C3E7FD"/>
<path d="M129.788 19.0985C129.788 18.3677 128.651 17.7754 127.248 17.7754C125.846 17.7754 124.709 18.3677 124.709 19.0985C124.709 19.8293 125.846 20.4216 127.248 20.4216C128.651 20.4222 129.788 19.8299 129.788 19.0985Z" fill="#C3E7FD"/>
<path d="M122.48 27.6579C123.155 27.6579 123.702 26.3001 123.702 24.6249C123.702 22.9497 123.155 21.5918 122.48 21.5918C121.806 21.5918 121.26 22.9497 121.26 24.6249C121.26 26.3001 121.806 27.6579 122.48 27.6579Z" fill="#C3E7FD"/>
</g>
<g opacity="0.44">
<path d="M216.5 38.6289C217.035 38.6289 217.469 37.5213 217.469 36.1553C217.469 34.7892 217.035 33.6816 216.5 33.6816C215.964 33.6816 215.53 34.7892 215.53 36.1553C215.53 37.5213 215.964 38.6289 216.5 38.6289Z" fill="#C3E7FD"/>
<path d="M214.233 40.212C214.233 39.6665 213.276 39.2246 212.097 39.2246C210.916 39.2246 209.96 39.6665 209.96 40.212C209.96 40.7576 210.917 41.1995 212.097 41.1995C213.276 41.1995 214.233 40.7569 214.233 40.212Z" fill="#C3E7FD"/>
<path d="M220.349 41.1306C221.462 41.1306 222.364 40.6602 222.364 40.0799C222.364 39.4997 221.462 39.0293 220.349 39.0293C219.235 39.0293 218.333 39.4997 218.333 40.0799C218.333 40.6602 219.235 41.1306 220.349 41.1306Z" fill="#C3E7FD"/>
<path d="M216.562 46.8731C217.098 46.8731 217.531 45.7952 217.531 44.4658C217.531 43.1364 217.098 42.0586 216.562 42.0586C216.027 42.0586 215.593 43.1364 215.593 44.4658C215.593 45.7952 216.027 46.8731 216.562 46.8731Z" fill="#C3E7FD"/>
</g>
<g opacity="0.44">
<path d="M391.155 57.6894C391.69 57.6894 392.124 56.5819 392.124 55.2158C392.124 53.8497 391.69 52.7422 391.155 52.7422C390.619 52.7422 390.186 53.8497 390.186 55.2158C390.186 56.5819 390.619 57.6894 391.155 57.6894Z" fill="#C3E7FD"/>
<path d="M388.888 59.2726C388.888 58.727 387.932 58.2852 386.752 58.2852C385.572 58.2852 384.615 58.727 384.615 59.2726C384.615 59.8181 385.572 60.26 386.752 60.26C387.932 60.26 388.888 59.8175 388.888 59.2726Z" fill="#C3E7FD"/>
<path d="M395.004 60.1911C396.117 60.1911 397.02 59.7207 397.02 59.1405C397.02 58.5602 396.117 58.0898 395.004 58.0898C393.891 58.0898 392.988 58.5602 392.988 59.1405C392.988 59.7207 393.891 60.1911 395.004 60.1911Z" fill="#C3E7FD"/>
<path d="M391.217 65.9336C391.753 65.9336 392.187 64.8558 392.187 63.5264C392.187 62.197 391.753 61.1191 391.217 61.1191C390.682 61.1191 390.248 62.197 390.248 63.5264C390.248 64.8558 390.682 65.9336 391.217 65.9336Z" fill="#C3E7FD"/>
</g>
</svg>
