<svg width="20" height="20" viewBox="0 0 20 20" fill="none" xmlns="http://www.w3.org/2000/svg">
<g clip-path="url(#clip0_1241_15581)">
<path d="M18.3183 9.44043H15.2749V1.67539C15.2749 1.23027 15.0981 0.803386 14.7834 0.48864C14.4686 0.173893 14.0417 -0.00292969 13.5966 -0.00292969H6.4022C5.95708 -0.00292969 5.53019 0.173893 5.21544 0.48864C4.9007 0.803386 4.72388 1.23027 4.72388 1.67539V9.44043H1.68052C1.2354 9.44043 0.808513 9.61725 0.493766 9.932C0.17902 10.2467 0.00219727 10.6736 0.00219727 11.1188V18.3243C0.00219727 18.7695 0.17902 19.1964 0.493766 19.5111C0.808513 19.8258 1.2354 20.0027 1.68052 20.0027H8.88052C9.29519 20.0037 9.69489 19.8478 9.9994 19.5663C10.305 19.846 10.704 20.0016 11.1183 20.0027H18.3239C18.769 20.0027 19.1959 19.8258 19.5106 19.5111C19.8254 19.1964 20.0022 18.7695 20.0022 18.3243V11.1188C20.0022 10.8979 19.9586 10.6792 19.8739 10.4752C19.7892 10.2712 19.6651 10.0859 19.5087 9.93001C19.3522 9.77409 19.1665 9.65059 18.9623 9.56657C18.758 9.48256 18.5392 9.43969 18.3183 9.44043ZM9.43996 18.3243C9.43996 18.4727 9.38102 18.615 9.2761 18.7199C9.17119 18.8248 9.02889 18.8838 8.88052 18.8838H1.68052C1.53215 18.8838 1.38985 18.8248 1.28493 18.7199C1.18002 18.615 1.12108 18.4727 1.12108 18.3243V11.1188C1.12108 10.9704 1.18002 10.8281 1.28493 10.7232C1.38985 10.6183 1.53215 10.5593 1.68052 10.5593H3.88471V12.7971C3.88471 12.9454 3.94366 13.0877 4.04857 13.1927C4.15349 13.2976 4.29578 13.3565 4.44416 13.3565H6.12248C6.27013 13.3542 6.41109 13.2945 6.51551 13.1901C6.61993 13.0857 6.67961 12.9447 6.68192 12.7971V10.5593H9.43996V18.3243ZM5.84276 9.44043V1.67539C5.84276 1.52702 5.9017 1.38472 6.00661 1.27981C6.11153 1.17489 6.25382 1.11595 6.4022 1.11595H8.5952V3.35371C8.5952 3.50209 8.65415 3.64438 8.75906 3.7493C8.86398 3.85421 9.00627 3.91316 9.15464 3.91316H10.833C10.9813 3.91316 11.1236 3.85421 11.2286 3.7493C11.3335 3.64438 11.3924 3.50209 11.3924 3.35371V1.11595H13.5966C13.745 1.11595 13.8873 1.17489 13.9922 1.27981C14.0971 1.38472 14.156 1.52702 14.156 1.67539V9.44043H5.84276ZM18.8777 18.3243C18.8754 18.472 18.8157 18.613 18.7113 18.7174C18.6069 18.8218 18.4659 18.8815 18.3183 18.8838H11.1183C10.9706 18.8815 10.8297 18.8218 10.7252 18.7174C10.6208 18.613 10.5611 18.472 10.5588 18.3243V10.5593H13.3225V12.7971C13.3225 12.9454 13.3814 13.0877 13.4863 13.1927C13.5912 13.2976 13.7335 13.3565 13.8819 13.3565H15.5602C15.7086 13.3565 15.8509 13.2976 15.9558 13.1927C16.0607 13.0877 16.1197 12.9454 16.1197 12.7971V10.5593H18.3239C18.4722 10.5593 18.6145 10.6183 18.7195 10.7232C18.8244 10.8281 18.8833 10.9704 18.8833 11.1188L18.8777 18.3243Z" fill="#115293"/>
</g>
<defs>
<clipPath id="clip0_1241_15581">
<rect width="20" height="20" fill="white"/>
</clipPath>
</defs>
</svg>
