<svg width="20" height="20" viewBox="0 0 20 20" fill="none" xmlns="http://www.w3.org/2000/svg">
<path fill-rule="evenodd" clip-rule="evenodd" d="M15.0759 2.12398C14.6155 1.86622 14.1255 1.84026 13.6075 1.905C13.1154 1.9665 12.5168 2.12209 11.7974 2.30908L10.1155 2.74617C9.39637 2.93303 8.79762 3.08862 8.33945 3.27409C7.85779 3.46911 7.44131 3.73113 7.17117 4.18496C6.89931 4.64165 6.87232 5.12987 6.94007 5.63981C7.00394 6.12061 7.16516 6.70407 7.35723 7.39918L7.80935 9.03575C8.00146 9.73125 8.16261 10.3146 8.35504 10.7616C8.55929 11.2363 8.8322 11.6403 9.2952 11.8996C9.75545 12.1573 10.2455 12.1833 10.7636 12.1186C11.2556 12.0571 11.8543 11.9015 12.5736 11.7145L14.2556 11.2774C14.9747 11.0905 15.5735 10.9349 16.0315 10.7495C16.5132 10.5544 16.9297 10.2924 17.1999 9.83858C17.4717 9.38192 17.4987 8.89367 17.431 8.38375C17.367 7.90296 17.2059 7.3195 17.0138 6.62438L16.5616 4.9878C16.3695 4.29233 16.2084 3.70897 16.016 3.26195C15.8117 2.78731 15.5389 2.38324 15.0759 2.12398ZM12.071 3.5295C12.8417 3.32919 13.361 3.19553 13.7625 3.14535C14.1471 3.09728 14.3313 3.13967 14.4651 3.21462C14.5963 3.28806 14.7215 3.41609 14.8679 3.75612C15.0222 4.11473 15.1615 4.61403 15.3685 5.3629L15.7971 6.91462C16.0041 7.66368 16.1407 8.16343 16.1919 8.54842C16.2404 8.914 16.197 9.07967 16.1258 9.19925C16.0529 9.32167 15.9207 9.44575 15.5625 9.59083C15.1894 9.74192 14.671 9.87792 13.9 10.0783L12.3001 10.4941C11.5293 10.6944 11.01 10.8281 10.6085 10.8783C10.2239 10.9263 10.0398 10.8839 9.90587 10.8089C9.77479 10.7355 9.64954 10.6075 9.5032 10.2674C9.34887 9.90883 9.20945 9.4095 9.00254 8.66067L8.57387 7.10895C8.36695 6.35989 8.23033 5.86014 8.17918 5.47518C8.1306 5.10957 8.17409 4.94391 8.24527 4.82434C8.31815 4.70189 8.45029 4.57778 8.80854 4.43273C9.1817 4.28167 9.70012 4.14563 10.471 3.94528L12.071 3.5295Z" fill="#115293"/>
<path fill-rule="evenodd" clip-rule="evenodd" d="M2.66725 3.93746C2.33464 3.84518 1.99019 4.04001 1.89791 4.37261C1.80563 4.70523 2.00045 5.04968 2.33307 5.14196L3.75282 5.53586C4.10748 5.63426 4.3716 5.90218 4.46183 6.22877L6.08792 12.1147C6.02544 12.127 5.963 12.1412 5.90067 12.1575C4.25313 12.5856 3.24636 14.243 3.69863 15.88C4.14873 17.5092 5.86013 18.4489 7.50114 18.0224C8.93725 17.6492 9.8865 16.342 9.80692 14.9285L16.824 13.1049C17.1581 13.018 17.3586 12.6768 17.2718 12.3427C17.1849 12.0086 16.8437 11.8082 16.5096 11.895L9.47783 13.7225C9.05425 12.8997 8.27622 12.3275 7.38907 12.1304L5.66669 5.89591C5.45575 5.13238 4.85108 4.54336 4.087 4.33136L2.66725 3.93746ZM6.21508 13.3672C7.22484 13.1048 8.23813 13.6909 8.49833 14.6326C8.75633 15.5665 8.18997 16.5519 7.18673 16.8125C6.17696 17.075 5.16368 16.4889 4.9035 15.5471C4.6455 14.6133 5.21183 13.628 6.21508 13.3672Z" fill="#115293"/>
</svg>
