<svg width="248" height="189" viewBox="0 0 248 189" fill="none" xmlns="http://www.w3.org/2000/svg">
<path d="M17.6058 179.297C17.6058 179.297 -5.37343 163.15 5.19167 142.857C15.759 122.564 36.8913 91.4063 26.316 75.5192C15.759 59.6372 14.6824 8.75287 75.4398 0.952554C123.899 -5.26475 138.628 20.3287 146.139 37.7959C156.045 60.8373 147.192 102.901 193.525 108.45C239.869 113.998 266.34 136.912 233.145 174.26C218.638 190.581 17.6058 179.297 17.6058 179.297Z" fill="#C9D6F2"/>
<path d="M100.577 166.598C66.3805 174.072 38.5287 163.694 48.0333 146.037C57.5321 128.38 51.7109 126.154 44.3835 120.599C37.056 115.047 20.593 99.581 36.6307 82.5939C52.6881 65.6164 40.491 60.6905 35.4781 50.6991C20.8349 21.5523 80.2227 9.58542 64.1528 36.4104C52.0895 56.543 52.7253 71.9601 67.7164 82.2037C82.72 92.4494 85.7128 97.8525 85.0499 110.514C84.3848 123.176 79.2061 150.088 94.4939 148.968C109.77 147.847 118.116 162.763 100.577 166.598Z" fill="#EBF2FF"/>
<path d="M38.4603 46.7256C36.8722 43.7087 36.4995 28.9149 50.8525 29.6816C59.5876 30.1493 55.052 42.0789 53.0707 51.2583C51.0952 60.4385 52.445 74.8507 56.0956 80.7867C62.8391 91.7347 61.3979 96.342 53.0487 105.735C53.0487 105.735 48.7133 112.711 56.711 120.197C64.7064 127.682 61.6172 148.298 70.9062 151.638C80.1952 154.977 85.4427 162.1 79.0771 162.762C72.726 163.43 46.3812 165.989 53.3155 148.643C63.4231 123.391 43.718 115.905 38.8089 110.302C34.3077 105.165 30.4576 93.6883 43.5127 79.295C53.6129 68.154 43.3299 56.0191 38.4603 46.7256Z" fill="#CBDBF4"/>
<path d="M73.992 178.129L73.468 180.444C72.971 180.318 61.0611 177.323 48.226 169.088C31.1403 158.118 20.7557 143.059 18.2139 125.508L20.4269 125.127C26.335 165.885 73.5155 178.008 73.992 178.129Z" fill="#115293"/>
<path d="M19.8236 127.851C19.8236 127.851 7.41389 121.267 12.5554 106.103C12.5554 106.103 23.5678 115.05 19.8236 127.851Z" fill="#115293"/>
<path d="M23.7978 140.248C23.7978 140.248 6.87945 145.901 0 126.802C0 126.802 9.02375 123.489 23.7978 140.248Z" fill="#115293"/>
<path d="M23.221 140.324C23.221 140.324 38.9298 131.563 31.1002 112.894C31.1002 112.894 22.5238 117.338 23.221 140.324Z" fill="#115293"/>
<path d="M32.6013 154.462C32.6013 154.462 16.2918 161.921 7.5918 143.69C7.5918 143.69 16.2472 139.41 32.6013 154.462Z" fill="#115293"/>
<path d="M32.028 154.594C32.028 154.594 46.8137 144.182 37.1965 126.468C37.1965 126.468 29.0878 131.827 32.028 154.594Z" fill="#115293"/>
<path d="M46.6427 166.813C46.6427 166.813 31.7554 177.093 20.2256 160.735C20.2256 160.735 28.0654 154.948 46.6427 166.813Z" fill="#115293"/>
<path d="M46.0929 167.045C46.0929 167.045 58.9872 154.119 46.6418 138.43C46.6418 138.43 39.5116 145.172 46.0929 167.045Z" fill="#115293"/>
<path d="M61.0754 174.561C61.0754 174.561 49.2299 188.569 34.0254 175.978C34.0254 175.978 40.1908 168.25 61.0754 174.561Z" fill="#115293"/>
<path d="M60.6158 174.937C60.6158 174.937 69.9144 158.939 54.0945 147.227C54.0945 147.227 48.8616 155.677 60.6158 174.937Z" fill="#115293"/>
<path d="M162.149 178.182C194.897 187.119 222.378 178.448 214.053 160.875C205.727 143.307 211.474 141.442 218.848 136.424C226.226 131.409 242.925 117.251 228.236 100.009C213.537 82.7647 225.588 78.6025 230.937 69.1754C246.553 41.6729 189.642 27.1386 203.874 53.9168C214.561 74.0128 213.183 88.9052 198.146 98.0825C183.118 107.265 179.957 112.349 179.967 124.643C179.98 136.939 183.665 163.254 168.916 161.415C154.174 159.569 145.355 173.596 162.149 178.182Z" fill="#7585F8"/>
<path opacity="0.2" d="M228.24 65.1792C229.932 62.3325 231.024 48.0284 217.086 48.0562C208.609 48.0759 212.413 59.855 213.871 68.8444C215.328 77.8308 213.31 91.7198 209.479 97.2888C202.406 107.554 203.576 112.087 211.195 121.596C211.195 121.596 215.041 128.573 206.922 135.423C198.813 142.275 200.784 162.394 191.626 165.168C182.461 167.938 177.025 174.578 183.153 175.535C189.279 176.495 214.67 180.284 208.801 163.141C200.269 138.185 219.719 131.912 224.754 126.728C229.369 121.978 233.662 111.054 221.738 96.4681C212.509 85.1787 223.074 73.9362 228.24 65.1792Z" fill="#F6F5F7"/>
<path d="M157.381 177.605L156.884 174.571C205.078 166.694 225.925 128.954 226.136 128.562L228.844 130.026C228.631 130.41 207.116 169.481 157.381 177.605Z" fill="#EBF2FF"/>
<path d="M225.936 131.145C225.936 131.145 232.23 114.869 240.438 120.066C243.927 122.269 242.043 130.168 225.936 131.145Z" fill="#EBF2FF"/>
<path d="M222.283 136.467C222.283 136.467 238.325 127.195 240 136.565C240.705 140.564 233.673 145.799 222.283 136.467Z" fill="#EBF2FF"/>
<path d="M222.315 138.195C222.315 138.195 232.135 123.214 222.025 121.77C217.717 121.144 212.136 127.717 222.315 138.195Z" fill="#EBF2FF"/>
<path d="M211.629 149.054C211.629 149.054 222.202 134.439 212.213 132.534C207.96 131.719 202.078 138.052 211.629 149.054Z" fill="#EBF2FF"/>
<path d="M202.264 157.329C202.264 157.329 212.76 142.698 202.769 140.814C198.51 140 192.649 146.361 202.264 157.329Z" fill="#EBF2FF"/>
<path d="M189.172 165.472C189.172 165.472 202.128 152.548 192.861 148.997C188.907 147.486 182.032 152.882 189.172 165.472Z" fill="#EBF2FF"/>
<path d="M177.832 170.639C177.832 170.639 190.42 157.401 181 154.119C177.006 152.734 170.267 158.291 177.832 170.639Z" fill="#EBF2FF"/>
<path d="M162.307 175.093C162.307 175.093 177.993 165.211 170.223 159.532C166.907 157.109 158.971 160.885 162.307 175.093Z" fill="#EBF2FF"/>
<path d="M214.441 146.27C214.441 146.27 230.511 136.993 232.168 146.378C232.875 150.367 225.859 155.591 214.441 146.27Z" fill="#EBF2FF"/>
<path d="M204.855 154.915C204.855 154.915 220.923 145.658 222.579 155.034C223.295 159.02 216.263 164.251 204.855 154.915Z" fill="#EBF2FF"/>
<path d="M194.328 161.951C194.328 161.951 211.849 156.113 211.108 165.826C210.809 169.961 202.838 173.698 194.328 161.951Z" fill="#EBF2FF"/>
<path d="M181.884 168.544C181.884 168.544 199.779 164.382 197.943 174.081C197.16 178.209 188.925 181.188 181.884 168.544Z" fill="#EBF2FF"/>
<path d="M168.692 173.169C168.692 173.169 186.753 171.378 183.456 180.904C182.03 184.95 173.55 186.839 168.692 173.169Z" fill="#EBF2FF"/>
<path d="M232.338 182.064C232.338 185.892 183.021 188.996 122.18 188.996C61.3426 188.996 12.0215 185.892 12.0215 182.064C12.0215 178.236 61.3433 175.134 122.18 175.134C183.022 175.135 232.338 178.236 232.338 182.064Z" fill="#ACBFE2"/>
<path d="M205.504 104.038C205.504 146.673 170.94 181.233 128.306 181.233C85.6684 181.233 51.1074 146.673 51.1074 104.038C51.1074 61.4 85.6684 26.8369 128.306 26.8369C170.94 26.8369 205.504 61.4 205.504 104.038Z" fill="#115293"/>
<path d="M135.192 132.73C137.433 136.38 135.173 141.851 130.133 144.944C125.1 148.036 119.195 147.583 116.954 143.931L91.18 101.953C88.937 98.3003 91.1975 92.8351 96.2397 89.7414C101.272 86.6477 107.177 87.1031 109.418 90.7529L135.192 132.73Z" fill="#F6F5F7"/>
<path d="M134.252 141.892C131.161 146.925 124.571 148.505 119.538 145.413C114.495 142.322 112.922 135.732 116.014 130.691L151.534 72.8025C154.625 67.7648 161.215 66.1869 166.255 69.2784C171.29 72.3698 172.871 78.9577 169.779 83.9954L134.252 141.892Z" fill="#F6F5F7"/>
<path d="M71.6489 93.3361C72.7196 92.8413 76.2364 92.5673 78.0716 95.3445C80.5469 99.0616 81.3998 108.115 86.9199 110.843C92.4575 113.563 95.9071 111.241 98.4197 109.977C100.929 108.726 101.345 107.037 102.901 106.469C104.439 105.902 105.04 107.77 101.493 110.752C99.7813 112.177 92.2536 120.236 85.0723 118.223C75.6473 115.567 65.3154 96.2273 71.6489 93.3361Z" fill="#E28C71"/>
<path d="M79.8459 151.771C78.3002 161.211 77.0534 181.233 81.1965 181.075C85.3514 180.914 87.5717 179.388 85.1358 178.805C82.6852 178.219 82.599 177.942 82.6231 177.192C82.8131 172.469 86.4615 163.48 87.8384 156.599C89.4412 148.616 81.2111 143.519 79.8459 151.771Z" fill="#F27851"/>
<path d="M79.3105 179.178C79.3105 179.178 83.0276 180.523 85.1368 178.804C85.1368 178.804 89.2449 179.148 86.752 180.4C84.2737 181.656 79.3946 182.87 79.3105 179.178Z" fill="#6E86CC"/>
<path d="M64.6401 112.957C64.6401 112.957 86.0093 127.961 89.0861 135.632C91.8458 142.534 85.4385 170.334 85.4385 170.334C85.4385 170.334 80.935 172.129 76.7999 169.594L77.3415 147.975L59.3057 131.48L64.6401 112.957Z" fill="#1B0607"/>
<path d="M50.8553 152.944C42.9615 159.461 27.8585 174.712 31.3184 177.504C34.7753 180.287 37.6468 180.625 36.0835 178.452C34.5304 176.251 34.6466 175.951 35.2006 175.378C38.6824 171.71 47.9341 167.026 53.8766 162.461C60.7941 157.168 57.7523 147.256 50.8553 152.944Z" fill="#F27851"/>
<path d="M31.1256 174.65C31.1256 174.65 33.1786 178.344 36.0837 178.451C36.0837 178.451 39.1452 181.607 36.2671 180.864C33.3883 180.123 28.613 177.68 31.1256 174.65Z" fill="#6E86CC"/>
<path d="M61.4743 112.851C61.4743 112.851 72.5634 138.111 69.6378 146.449C67.0141 153.957 42.2961 171.838 42.2961 171.838C42.2961 171.838 37.3995 170.111 35.8486 165.158L51.5004 148.123C51.5004 148.123 45.2436 128.433 48.3154 121.132C48.4243 120.887 47.8878 122.871 47.8878 122.871L61.4743 112.851Z" fill="#171A20"/>
<path d="M74.8113 124.03C78.9069 118.626 81.2215 110.25 81.3823 103.748C81.6074 94.7316 73.639 92.4046 68.5772 91.9266C63.5124 91.4392 55.2348 90.4576 55.574 101.695C55.7991 109.537 52.9524 113.633 48.9759 120.263C48.8692 120.438 48.761 120.582 48.6543 120.748C48.6368 120.745 48.6295 120.725 48.6295 120.725C48.6346 120.737 48.6368 120.745 48.6543 120.748C43.0473 127.633 70.1594 130.158 74.8113 124.03Z" fill="#FCDCDA"/>
<path d="M48.9753 120.263C48.8686 120.438 48.7605 120.581 48.6538 120.747C48.6362 120.744 48.6289 120.725 48.6289 120.725C48.634 120.737 48.6362 120.744 48.6538 120.747C44.3133 126.071 59.5448 128.777 68.8185 126.912C70.2575 124.758 63.2889 124.184 60.7091 122.092C54.7614 117.27 75.9706 116.859 72.3171 115.086C68.3727 113.187 62.5018 113.944 65.0861 108.169C67.6609 102.385 65.4449 95.4753 62.9988 93.1358C60.4489 90.6904 56.1807 93.5568 55.7159 98.8781C55.5997 99.7266 55.5303 100.647 55.5727 101.695C55.7985 109.537 52.9519 113.632 48.9753 120.263Z" fill="#EFBEBD"/>
<path d="M69.2967 85.3169C69.2967 85.3169 70.4141 89.5923 67.2591 91.1702C64.0244 92.7774 73.9485 100.684 74.1042 98.3391C74.3074 95.3149 73.1124 93.2773 75.1968 90.1485L69.2967 85.3169Z" fill="#E67052"/>
<path d="M76.9306 79.0403C79.015 81.8818 79.7795 92.8277 76.7077 94.6402C75.3622 95.4163 70.8295 93.4087 68.683 88.2577C67.79 86.1485 66.9298 82.3298 69.4943 79.1346C70.6571 77.6802 74.5079 75.7259 76.9306 79.0403Z" fill="#EE9D7F"/>
<path d="M67.907 78.9831C65.1992 82.3859 66.3839 85.6726 66.5761 86.2762C67.2814 88.4819 69.0741 90.5371 69.6208 89.899C70.2712 89.1375 67.8083 88.3409 68.9382 86.1571C70.0732 83.9682 68.629 83.1972 69.3811 81.2407C70.1127 79.2915 71.5546 79.9595 76.1173 80.1028C77.9868 80.162 78.4567 79.5261 78.3902 78.75C76.0756 75.432 70.7558 75.402 67.907 78.9831Z" fill="#062440"/>
<path d="M78.7611 81.4096C79.8735 78.7684 83.8383 79.4013 82.5747 77.534C81.7291 76.2828 81.7189 77.2248 72.2749 75.2983C67.8657 74.4008 66.9975 76.2828 66.1563 78.7676C65.3772 81.0625 65.6198 86.701 68.6397 90.0226C71.6493 93.3363 68.5454 87.814 69.7001 85.3167C70.8549 82.8216 71.6171 83.8777 73.2783 84.2906C74.9403 84.6984 76.9677 85.6632 78.7611 81.4096Z" fill="#353A66"/>
<path d="M47.6426 127.744L55.6431 139.213L120.033 94.2592L128.305 79.9521L112.021 82.7915L47.6426 127.744Z" fill="#494C7F"/>
<path d="M116.474 89.1479L52.0801 134.098L55.6472 139.208L120.041 94.2581L116.474 89.1479Z" fill="#373C66"/>
<path d="M128.305 79.9521L126.067 83.8278L123.908 80.7239L128.305 79.9521Z" fill="#1F1440"/>
<path d="M61.1428 92.4463C62.3421 92.5428 64.4323 94.3531 64.7012 97.7164C65.0798 102.218 62.5299 110.314 66.084 115.434C69.6527 120.563 73.8492 120.196 76.6834 120.316C79.5352 120.439 80.7272 119.151 82.3665 119.398C84.0138 119.648 83.6279 121.604 79.0207 122.505C76.8172 122.933 66.1929 126.372 60.8219 121.055C53.7831 114.09 54.1245 91.8901 61.1428 92.4463Z" fill="#E28C71"/>
</svg>
