<svg width="20" height="20" viewBox="0 0 20 20" fill="none" xmlns="http://www.w3.org/2000/svg">
<path d="M14.303 15.9375C14.3079 15.9337 14.314 15.9316 14.3202 15.9316C14.3264 15.9316 14.3325 15.9337 14.3374 15.9375L15.3999 16.9719C15.3999 16.9719 15.4374 16.9719 15.4374 16.95V3.03125H4.56238V16.925C4.56189 16.9299 4.56287 16.9348 4.56519 16.9392C4.56751 16.9436 4.57106 16.9471 4.5754 16.9495C4.57975 16.9518 4.58468 16.9528 4.5896 16.9523C4.59451 16.9519 4.59917 16.95 4.603 16.9469L5.97175 15.9187C5.97619 15.9152 5.9817 15.9133 5.98738 15.9133C5.99306 15.9133 5.99857 15.9152 6.003 15.9187L7.41863 16.9594C7.42327 16.9638 7.42942 16.9662 7.43581 16.9662C7.44221 16.9662 7.44836 16.9638 7.453 16.9594L8.703 15.9187C8.703 15.9187 8.72488 15.9187 8.73738 15.9187L10.1499 16.9562C10.1545 16.9606 10.1607 16.9631 10.1671 16.9631C10.1735 16.9631 10.1796 16.9606 10.1843 16.9562L11.4968 15.9375C11.5019 15.9329 11.5086 15.9303 11.5155 15.9303C11.5224 15.9303 11.5291 15.9329 11.5343 15.9375L12.9436 16.9719C12.9488 16.9765 12.9555 16.979 12.9624 16.979C12.9693 16.979 12.976 16.9765 12.9811 16.9719L14.2311 15.9406" stroke="#115293" stroke-width="0.9375" stroke-linecap="round"/>
<path d="M5.84985 9.72168H10.0061" stroke="#115293" stroke-width="0.9375" stroke-linecap="round"/>
<path d="M5.84985 8.05322H10.8405" stroke="#115293" stroke-width="0.9375" stroke-linecap="round"/>
<path d="M5.84985 4.6875H11.2655" stroke="#115293" stroke-width="0.9375" stroke-linecap="round"/>
<path d="M5.84985 6.28418H10.3592" stroke="#115293" stroke-width="0.9375" stroke-linecap="round"/>
<path d="M12.8157 9.67188H14.15" stroke="#115293" stroke-width="0.9375" stroke-linecap="round"/>
<path d="M5.84985 11.5029H10.8405" stroke="#115293" stroke-width="0.9375" stroke-linecap="round"/>
<path d="M13.0813 11.4561H14.15" stroke="#115293" stroke-width="0.9375" stroke-linecap="round"/>
<path d="M12.8157 13.2998H14.15" stroke="#115293" stroke-width="0.9375" stroke-linecap="round"/>
<path d="M12.8157 8.00293H14.15" stroke="#115293" stroke-width="0.9375" stroke-linecap="round"/>
<path d="M13.0813 6.28418H14.15" stroke="#115293" stroke-width="0.9375" stroke-linecap="round"/>
<path d="M12.8157 4.6875H14.15" stroke="#115293" stroke-width="0.9375" stroke-linecap="round"/>
</svg>
